<?xml version="1.0" encoding="utf-8"?>
<!-- Generator: Adobe Illustrator 16.0.0, SVG Export Plug-In . SVG Version: 6.00 Build 0)  -->
<!DOCTYPE svg PUBLIC "-//W3C//DTD SVG 1.1//EN" "http://www.w3.org/Graphics/SVG/1.1/DTD/svg11.dtd">
<svg version="1.1" id="Layer_1" xmlns="http://www.w3.org/2000/svg" xmlns:xlink="http://www.w3.org/1999/xlink" x="0px" y="0px"
	 width="1893.242px" height="185.249px" viewBox="0 0 1893.242 185.249" enable-background="new 0 0 1893.242 185.249"
	 xml:space="preserve">
<g>
	<g>
		<path fill="#FFC90E" d="M140.61,33.675v20.138h21.644v22.213H140.61v70.064h-27.986V75.82H98.198V53.813h14.426V34.294
			c0-7.756,3.242-16.139,8.666-22.421C125.961,6.453,134.453,0,148.362,0h17.189v24.48h-16.366
			C144.622,24.48,140.61,28.776,140.61,33.675z"/>
	</g>
	<g>
		<rect x="273.397" y="2.472" fill="#FFC90E" width="28.81" height="143.618"/>
	</g>
	<g>
		<rect x="316.681" y="51.354" fill="#FFC90E" width="28.811" height="94.736"/>
		<path fill="#FFC90E" d="M345.491,28.143c0,7.32-6.078,12.24-15.127,12.24c-6.636,0-10.001-3.263-11.419-5.21l-0.115-0.179
			c-1.871-3.204-2.149-6.441-2.149-8.089c0-6.192,4.677-12.445,15.127-12.445c6.535,0,9.815,3.352,11.211,5.411
			C345.167,22.617,345.491,26.226,345.491,28.143z"/>
	</g>
	<g>
		<path fill="#FFC90E" d="M457.825,94.717v51.374h-28.81V92.243c0-7.692-5.8-15.998-15.174-15.998h-4.327
			c-12.684,0-20.534,10.874-20.534,20.943v48.903h-28.81V53.828h20.593l2.401,4.971c8.093-5.069,17.654-7.444,29.853-7.444
			c17.368,0,27.994,8.081,33.849,14.858C453.73,74.153,457.825,84.807,457.825,94.717z"/>
	</g>
	<g>
		<path fill="#FF7F27" d="M697.667,90.799v55.291h-28.811V88.531c0-5.931-4.69-12.287-11.668-12.287h-2.473
			c-12.683,0-20.534,10.874-20.534,20.943v48.903h-28.805V2.472h28.805v53.341c6.591-2.96,14.034-4.459,22.183-4.459
			c15.935,0,25.744,7.389,31.164,13.585C693.874,72.201,697.667,81.869,697.667,90.799z"/>
	</g>
	<g>
		<path fill="#FF7F27" d="M796.876,67.913c-6.551-7.555-18.403-16.558-37.663-16.558c-19.996,0-32.155,8.687-38.834,15.973
			c-8.119,8.858-12.773,20.645-12.773,32.337v0.172c0,10.963,4.629,22.798,12.38,31.66c6.57,7.504,18.417,16.447,37.579,16.447
			c20.086,0,32.249-8.674,38.911-15.948c8.072-8.806,12.696-20.529,12.696-32.159v-0.172
			C809.171,88.66,804.576,76.791,796.876,67.913z M760.037,123.254h-3.058c-13.358-0.401-20.564-11.194-20.564-21.149v-4.917
			c0-10.112,8.167-20.943,20.325-20.943h3.062c13.355,0.406,20.564,11.087,20.564,20.943v4.917
			C780.365,112.278,772.593,123.254,760.037,123.254z"/>
	</g>
	<g>
		<rect x="820.763" y="2.472" fill="#FF7F27" width="28.811" height="143.618"/>
	</g>
	<g>
		<path fill="#FF7F27" d="M934.125,2.472v54.909c-7.159-3.81-15.729-6.026-23.621-6.026c-19.16,0-31.015,9.003-37.583,16.554
			c-7.751,8.909-12.377,20.777-12.377,31.756v0.172c0,10.963,4.626,22.798,12.382,31.66c6.563,7.504,18.41,16.447,37.578,16.447
			h2.473c7.836,0,18.355-1.721,25.574-6.439l3.702,4.586h19.861V2.472H934.125z M912.358,123.254
			c-13.547,0-23.007-8.695-23.007-21.149v-4.917c0-10.112,8.171-20.943,20.328-20.943h1.62
			c14.444,0.401,22.003,11.668,22.003,22.596v2.645C933.302,111.958,925.293,123.254,912.358,123.254z"/>
	</g>
	<g>
		<path fill="#FF7F27" d="M1006.017,30.616c0,7.32-6.082,12.24-15.129,12.24c-6.636,0-10-3.263-11.42-5.211l-0.114-0.179
			c-1.871-3.203-2.147-6.44-2.147-8.088c0-6.193,4.677-12.446,15.126-12.446c6.533,0,9.815,3.353,11.211,5.411
			C1005.69,25.085,1006.017,28.698,1006.017,30.616z"/>
		<rect x="977.206" y="53.828" fill="#FF7F27" width="28.811" height="92.263"/>
	</g>
	<g>
		<path fill="#FF7F27" d="M1118.35,94.717v51.374h-28.812V92.243c0-7.692-5.799-15.998-15.175-15.998h-4.324
			c-12.686,0-20.534,10.874-20.534,20.943v48.903h-28.812V53.828h20.594l2.4,4.971c8.094-5.069,17.654-7.444,29.852-7.444
			c17.37,0,27.997,8.081,33.852,14.858C1114.253,74.153,1118.35,84.807,1118.35,94.717z"/>
	</g>
	<g>
		<path fill="#FF7F27" d="M1209.124,53.828l-3.138,4.185c-6.653-4.138-15.501-6.658-23.62-6.658h-4.118
			c-19.161,0-31.012,9.003-37.585,16.554c-7.75,8.909-12.375,20.777-12.375,31.756v0.172c0,10.963,4.628,22.798,12.381,31.66
			c6.562,7.504,18.415,16.447,37.579,16.447h4.118c6.736,0,13.715-1.764,19.392-4.822c-0.922,9.127-7.333,17.852-17.533,17.852
			c-8.666,0-23.549-5.8-33.159-11.263l-6.115-3.058l-11.552,22.371l3.888,2.474c10.365,6.846,28.321,13.751,45.08,13.751
			c17.769,0,28.998-8.002,35.292-14.717c7.637-8.153,12.197-19.095,12.197-29.263V53.828H1209.124z M1180.925,123.254h-3.501
			c-12.16,0-20.332-10.933-20.332-21.149v-4.917c0-10.069,7.855-20.943,20.535-20.943h3.298c12.428,0,20.12,10.767,20.12,20.74
			v5.326C1201.045,112.386,1193.353,123.254,1180.925,123.254z"/>
	</g>
	<g>
		<path fill="#FF7F27" d="M1333.736,120.061c0,16.155-18.583,27.882-44.186,27.882c-12.757,0-24.536-2.518-33.165-7.091
			c-9.911-5.249-15.145-12.812-15.145-21.868v-4.378h27.981v4.378c0,6.438,10.728,8.722,19.913,8.722
			c4.094,0,17.443-0.55,17.443-7.645c0-4.819-2.388-6.375-13.43-8.782l-0.059-0.011c-2.833-0.696-5.774-1.383-8.613-2.045
			c-5.243-1.227-10.667-2.491-15.771-3.894c-18.728-4.874-27.465-13.481-27.465-27.077c0-16.394,16.61-26.986,42.329-26.986
			c13.221,0,24.441,2.517,32.459,7.276c8.617,5.119,13.172,12.615,13.172,21.68v4.558h-27.778v-4.558c0-2.156,0-8.722-17.438-8.722
			c-8.481,0-15.381,3.35-15.381,7.47c0,3.364,2.139,5.072,8.795,7.008c3.7,0.911,7.416,1.755,11.012,2.573
			c4.143,0.94,8.427,1.915,12.637,2.978c12.28,2.859,19.296,5.582,24.216,9.396C1331.045,105.408,1333.736,111.487,1333.736,120.061
			z"/>
	</g>
	<g>
		<g>
			<g>
				<g>
					<g>
						<path fill="#7F7F7F" d="M63.831,130.442c-0.58,0-1.303,0-1.828-0.103l-0.132-0.024h-0.133c-0.162,0-0.26-0.009-0.337-0.026
							c-0.005-0.05-0.005-0.112-0.005-0.189v-28.42c0-16.119-9.006-23.623-28.34-23.623c-7.137,0-17.501,1.581-24.579,5.116
							l-1.93,1.073v20.581l6.667-5.098c4.646-3.742,13.73-6.902,19.842-6.902c6.299,0,9.306,2.335,9.822,7.755H28.862
							c-9.358,0-16.648,2.234-21.671,6.641C2.486,111.352,0,117.313,0,124.466c0,9.743,8.089,24.152,25.458,24.152h3.404
							c4.664,0,13.021-0.658,18.531-4.899c2.079,1.863,5.304,3.72,9.89,3.72h10.527v-16.998H63.831z M29.913,132.146h-1.965
							c-5.496,0-9.644-3.468-9.644-8.072c0-3.511,1.14-7.543,10.037-7.543h14.618v2.042
							C42.959,125.245,38.079,132.146,29.913,132.146z"/>
					</g>
				</g>
			</g>
		</g>
	</g>
	<g>
		<g>
			<g>
				<g>
					<g>
						<path fill="#7F7F7F" d="M1420.833,120.517l15.107,9.344l-1.238,2.468c-5.717,10.352-16.318,16.289-29.091,16.289
							c-12.173,0-19.702-5.686-23.875-10.45c-4.927-5.628-7.867-13.15-7.867-20.115v-9.301c0-7.411,2.975-14.901,8.168-20.547
							c4.257-4.63,11.982-10.148,24.625-10.148c14.266,0,24.115,8.824,28.568,17.084l0.059,0.123l1.134,2.71l-15.658,8.373
							l-1.613-4.032c-1.509-4.083-5.842-8.443-11.834-8.443h-2.226c-7.726,0-12.913,6.881-12.913,13.308v12.313
							c0,6.333,4.628,13.195,13.212,13.439c7,0,11.465-2.674,13.629-8.174L1420.833,120.517z"/>
					</g>
					<g>
						<path fill="#7F7F7F" d="M1496.082,88.575c-4.164-4.8-11.693-10.519-23.934-10.519c-12.708,0-20.434,5.518-24.675,10.148
							c-5.156,5.627-8.116,13.12-8.116,20.547v9.301c0,6.965,2.941,14.487,7.864,20.115c4.174,4.765,11.702,10.45,23.878,10.45
							c21.304,0,32.797-15.75,32.797-30.565v-9.301C1503.896,101.759,1500.975,94.217,1496.082,88.575z M1472.674,132.931h-1.927
							c-8.501-0.248-13.086-7.106-13.086-13.439V107.18c0-6.427,5.193-13.308,12.92-13.308h1.921
							c8.503,0.248,13.085,7.042,13.085,13.308v12.313C1485.587,125.957,1480.651,132.931,1472.674,132.931z"/>
					</g>
					<g>
						<path fill="#7F7F7F" d="M1611.422,105.608v41.832h-18.307v-43.403c0-4.885-3.736-10.165-9.772-10.165h-2.75
							c-3.279,0-6.272,1.248-8.519,3.531c0.832,2.388,1.238,5.083,1.238,8.206v41.832h-18.311v-43.403
							c0-4.885-3.685-10.165-9.637-10.165h-2.751c-8.061,0-13.048,6.91-13.048,13.308v40.26h-18.31V79.628h13.088l1.521,3.161
							c5.144-3.225,11.22-4.733,18.974-4.733c8.082,0,13.912,3.011,17.578,5.8c5.59-4.006,11.936-5.8,20.399-5.8
							C1602.55,78.056,1611.422,94.167,1611.422,105.608z"/>
					</g>
					<g>
						<path fill="#7F7F7F" d="M1676.825,88.776c-4.167-4.831-11.7-10.592-23.937-10.592c-5.879,0-12.416,2.012-17.41,5.313
							l-2.394-3.869h-12.987v90.993h17.784v-25.625c4.284,2.375,9.718,3.753,15.007,3.753c12.24,0,19.77-5.724,23.934-10.522
							c4.896-5.642,7.814-13.185,7.814-20.175v-9.037C1684.637,102.012,1681.718,94.448,1676.825,88.776z M1653.414,133.065
							c-9.853,0-15.01-7.224-15.01-14.359v-11.002c0-6.589,5.089-13.7,13.307-13.7h1.57c7.806,0,13.049,6.88,13.049,13.308v12.44
							C1666.33,126.18,1661.14,133.065,1653.414,133.065z"/>
					</g>
					<g>
						<path fill="#7F7F7F" d="M1752.691,130.442c-0.58,0-1.306,0-1.825-0.103l-0.136-0.024h-0.135c-0.163,0-0.261-0.009-0.338-0.026
							c0-0.05-0.003-0.112-0.003-0.189v-28.42c0-16.119-9.005-23.623-28.341-23.623c-7.133,0-17.505,1.581-24.576,5.116l-1.93,1.073
							v20.581l6.669-5.098c4.641-3.742,13.73-6.902,19.837-6.902c6.297,0,9.309,2.335,9.825,7.755h-14.017
							c-9.358,0-16.65,2.234-21.672,6.641c-4.705,4.13-7.194,10.092-7.194,17.245c0,9.743,8.095,24.152,25.464,24.152h3.402
							c4.658,0,13.021-0.658,18.531-4.899c2.077,1.863,5.301,3.72,9.892,3.72h10.529v-16.998H1752.691z M1718.771,132.146h-1.967
							c-5.495,0-9.638-3.468-9.638-8.072c0-3.511,1.141-7.543,10.031-7.543h14.618v2.042
							C1731.815,125.245,1726.936,132.146,1718.771,132.146z"/>
					</g>
					<g>
						<path fill="#7F7F7F" d="M1824.514,105.608v41.832h-18.303v-43.403c0-4.885-3.688-10.165-9.645-10.165h-2.75
							c-8.055,0-13.045,6.91-13.045,13.308v40.26h-18.308V79.628h13.086l1.524,3.161c5.141-3.225,11.22-4.733,18.971-4.733
							C1815.682,78.056,1824.514,94.167,1824.514,105.608z"/>
					</g>
					<g>
						<path fill="#7F7F7F" d="M1893.242,79.628l-28.869,75.058c-2.014,5.3-8.424,17.638-24.456,17.638
							c-3.82,0-7.105-0.799-9.539-1.494l-0.077-0.021c-0.876-0.309-1.755-0.631-2.631-0.953c-1.699-0.624-3.46-1.269-5.169-1.781
							l-0.116-0.039l-3.188-1.277l5.9-16.002l4.155,1.508c0.7,0.252,1.433,0.524,2.176,0.802c1.161,0.437,2.366,0.884,3.553,1.282
							c2.028,0.674,3.51,0.977,4.81,0.977c2.565,0,4.462-1.114,6.337-3.723c0.922-1.457,1.622-2.776,2.203-4.152
							c0.316-1.042,0.726-2.144,1.248-3.36l-25.544-64.463h19.041l15.688,39.786l15.322-39.786H1893.242z"/>
					</g>
				</g>
			</g>
		</g>
	</g>
	<path fill="#FFC90E" d="M250.543,67.914c-6.551-7.556-18.402-16.558-37.664-16.558c-19.996,0-32.154,8.687-38.833,15.973
		c-8.119,8.857-12.774,20.645-12.774,32.339v0.169c0,10.963,4.629,22.798,12.381,31.66c6.569,7.504,18.415,16.447,37.579,16.447
		c20.085,0,32.248-8.674,38.911-15.948c0.453-0.493,0.892-0.999,1.324-1.511l-21.037-16.446c-3.451,5.307-9.239,9.215-16.725,9.215
		h-3.057c-9.772-0.295-16.251-6.146-19.022-13.162h70.027c0.777-3.375,1.187-6.816,1.187-10.255v-0.169
		C262.839,88.661,258.244,76.792,250.543,67.914z M191.715,89.237c2.959-7.127,9.745-12.991,18.692-12.991h3.062
		c9.746,0.294,16.216,6.064,19,12.991H191.715z"/>
	<path fill="#FFC90E" d="M557.035,67.914c-6.551-7.556-18.403-16.558-37.664-16.558c-19.996,0-32.154,8.687-38.833,15.973
		c-8.119,8.857-12.774,20.645-12.774,32.339v0.169c0,10.963,4.63,22.798,12.381,31.66c6.568,7.504,18.416,16.447,37.579,16.447
		c20.086,0,32.25-8.674,38.911-15.948c0.453-0.493,0.893-0.999,1.324-1.511l-21.038-16.446c-3.451,5.307-9.237,9.215-16.724,9.215
		h-3.059c-9.771-0.295-16.25-6.146-19.022-13.162h70.028c0.776-3.375,1.188-6.816,1.188-10.255v-0.169
		C569.33,88.661,564.735,76.792,557.035,67.914z M498.205,89.237c2.959-7.127,9.746-12.991,18.693-12.991h3.063
		c9.745,0.294,16.215,6.064,19,12.991H498.205z"/>
</g>
</svg>
