<?xml version="1.0" encoding="utf-8"?>
<!-- Generator: Adobe Illustrator 16.0.0, SVG Export Plug-In . SVG Version: 6.00 Build 0)  -->
<!DOCTYPE svg PUBLIC "-//W3C//DTD SVG 1.1//EN" "http://www.w3.org/Graphics/SVG/1.1/DTD/svg11.dtd">
<svg version="1.1" id="Layer_1" xmlns="http://www.w3.org/2000/svg" xmlns:xlink="http://www.w3.org/1999/xlink" x="0px" y="0px"
	 width="2015.805px" height="385.352px" viewBox="0 0 2015.805 385.352" enable-background="new 0 0 2015.805 385.352"
	 xml:space="preserve">
<polygon fill="#FFFFFF" points="256.899,128.449 256.899,256.899 385.353,256.899 385.353,385.352 0,385.352 0,256.899 
	128.449,256.899 128.449,128.449 0,128.449 0,0 385.353,0 385.353,128.449 "/>
<g>
	<path fill="#FFFFFF" d="M602.277,314.433h-47.24V70.917h47.24V314.433z"/>
	<path fill="#FFFFFF" d="M802.208,314.433h-43.888V209.285c0-6.296-0.972-11.834-2.91-16.61c-1.938-4.772-4.538-8.734-7.805-11.886
		c-3.267-3.148-6.991-5.486-11.172-7.01c-4.181-1.524-8.52-2.286-13.005-2.286c-6.734,0-13.367,1.171-19.896,3.505
		c-6.529,2.338-12.443,6.048-17.749,11.125v128.311h-43.888V138.272h43.888l0.305,13.105c2.638-2.638,5.891-5.076,9.753-7.314
		c3.857-2.233,7.872-4.115,12.039-5.638c4.162-1.524,8.429-2.691,12.801-3.505c4.367-0.809,8.581-1.219,12.648-1.219
		c8.938,0,17.525,1.424,25.753,4.267c8.229,2.848,15.544,7.215,21.944,13.105c6.4,5.896,11.529,13.515,15.392,22.858
		c3.857,9.348,5.791,20.42,5.791,33.22V314.433z"/>
	<path fill="#FFFFFF" d="M933.868,310.471c-4.472,2.848-9.653,4.976-15.544,6.4c-5.896,1.419-11.786,2.134-17.678,2.134
		c-10.361,0-19.1-1.271-26.21-3.81c-7.114-2.538-12.801-6.448-17.067-11.734c-4.268-5.281-7.367-11.986-9.296-20.115
		c-1.933-8.125-2.896-17.677-2.896-28.649v-77.108h-23.163v-19.811c14.219-5.891,25.753-14.629,34.592-26.21
		c8.838-11.582,14.881-26.616,18.134-45.107h14.324v51.507h44.497v39.621h-44.497v80.156c0,4.472,0.558,8.129,1.677,10.972
		c1.114,2.848,2.59,5.081,4.419,6.705c1.829,1.628,3.909,2.743,6.248,3.353c2.333,0.609,4.823,0.914,7.467,0.914
		c3.452,0,7.62-0.609,12.496-1.829c4.876-1.219,9.038-3.248,12.496-6.095V310.471z"/>
	<path fill="#FFFFFF" d="M1086.255,156.559l-23.468,37.183c-4.267-4.671-8.991-8.786-14.172-12.343
		c-5.182-3.553-10.415-5.333-15.696-5.333c-2.848,0-5.943,0.662-9.296,1.981c-3.353,1.324-6.505,3.505-9.447,6.553
		c-2.948,3.048-5.438,7.062-7.468,12.039c-2.033,4.981-3.048,11.125-3.048,18.439v99.357h-43.888V138.272h43.888v18.896
		c5.281-7.515,11.125-13.306,17.525-17.373c6.4-4.062,13.563-6.095,21.486-6.095c7.72,0,15.286,2.085,22.706,6.248
		C1072.792,144.115,1079.75,149.654,1086.255,156.559z"/>
	<path fill="#FFFFFF" d="M1244.734,314.433h-43.888v-9.448c-7.725,5.286-15.901,8.943-24.534,10.972
		c-8.639,2.029-17.525,3.048-26.668,3.048c-8.534,0-16.258-1.271-23.163-3.81c-6.91-2.538-12.905-6.195-17.982-10.972
		c-5.081-4.771-8.99-10.41-11.733-16.915c-2.743-6.5-4.114-13.715-4.114-21.639c0-9.953,2.181-18.639,6.553-26.058
		c4.366-7.415,10.31-13.61,17.829-18.591c7.515-4.977,16.306-8.687,26.363-11.125s20.877-3.657,32.458-3.657h25.297
		c0-10.362-3.353-18.591-10.058-24.687c-6.705-6.095-16.358-9.143-28.954-9.143c-6.095,0-12.396,1.119-18.896,3.353
		c-6.505,2.238-13.006,6.3-19.506,12.191l-25.906-26.211c9.344-8.938,20.163-15.848,32.459-20.725
		c12.291-4.876,24.939-7.314,37.944-7.314c12.191,0,23.044,1.933,32.563,5.791c9.515,3.862,17.201,8.838,23.054,14.934
		c7.667,7.724,13.063,16.358,16.191,25.906c3.124,9.553,4.69,21.744,4.69,36.573V314.433z M1200.847,270.545v-32.611h-20.115
		c-6.096,0-11.839,0.409-17.22,1.219c-5.386,0.814-10.058,2.186-14.02,4.115c-3.963,1.933-7.115,4.419-9.448,7.467
		c-2.339,3.048-3.505,6.705-3.505,10.972c0,6.095,2.386,11.077,7.162,14.934c4.771,3.862,10.919,5.791,18.438,5.791
		c6.501,0,12.953-1.014,19.354-3.048C1187.894,277.354,1194.342,274.407,1200.847,270.545z"/>
	<path fill="#FFFFFF" d="M1458.378,244.639c0,10.162-2.086,19.558-6.248,28.191c-4.167,8.639-9.705,16.053-16.61,22.249
		c-6.91,6.2-14.887,11.024-23.925,14.477c-9.043,3.458-18.544,5.181-28.497,5.181l-98.442-0.305V70.612h87.775
		c10.563,0,20.368,1.577,29.411,4.724c9.038,3.152,16.915,7.724,23.62,13.715c6.705,5.996,11.934,13.31,15.696,21.944
		c3.757,8.639,5.638,18.339,5.638,29.106c0,9.143-2.033,17.981-6.095,26.515c-4.067,8.534-9.448,15.749-16.153,21.639
		c5.281,2.643,10.005,5.996,14.172,10.058c4.162,4.067,7.72,8.586,10.667,13.563c2.943,4.981,5.182,10.262,6.705,15.849
		C1457.616,233.314,1458.378,238.953,1458.378,244.639z M1400.166,141.015c0-5.891-1.119-10.972-3.353-15.239
		c-2.238-4.267-5.234-7.819-8.991-10.667c-3.763-2.843-8.077-4.977-12.953-6.4c-4.876-1.419-9.958-2.133-15.239-2.133h-27.734v67.05
		c5.077,0.205,9.648,0.305,13.715,0.305c4.063,0,8.734,0,14.02,0c5.281,0,10.363-0.61,15.239-1.829
		c4.876-1.219,9.19-3.148,12.953-5.791c3.757-2.638,6.753-6.043,8.991-10.21C1399.047,151.939,1400.166,146.911,1400.166,141.015z
		 M1409.309,241.896c0-5.077-0.967-9.753-2.896-14.02c-1.933-4.267-4.571-7.872-7.924-10.82c-3.353-2.943-7.215-5.229-11.581-6.857
		c-4.372-1.624-9.096-2.438-14.173-2.438c-6.909-0.2-13.715-0.252-20.42-0.152c-6.705,0.104-13.515,0.152-20.42,0.152v67.355h35.354
		c5.076,0,10.157-0.61,15.238-1.829c5.077-1.219,9.601-3.2,13.563-5.943s7.162-6.195,9.601-10.362
		C1408.09,252.82,1409.309,247.792,1409.309,241.896z"/>
	<path fill="#FFFFFF" d="M1628.745,314.433h-43.888v-9.448c-7.725,5.286-15.901,8.943-24.534,10.972
		c-8.639,2.029-17.525,3.048-26.668,3.048c-8.534,0-16.258-1.271-23.163-3.81c-6.91-2.538-12.905-6.195-17.982-10.972
		c-5.081-4.771-8.99-10.41-11.733-16.915c-2.743-6.5-4.114-13.715-4.114-21.639c0-9.953,2.181-18.639,6.553-26.058
		c4.366-7.415,10.31-13.61,17.829-18.591c7.515-4.977,16.306-8.687,26.363-11.125s20.877-3.657,32.458-3.657h25.297
		c0-10.362-3.353-18.591-10.058-24.687c-6.705-6.095-16.358-9.143-28.954-9.143c-6.095,0-12.396,1.119-18.896,3.353
		c-6.505,2.238-13.006,6.3-19.506,12.191l-25.906-26.211c9.344-8.938,20.163-15.848,32.459-20.725
		c12.291-4.876,24.939-7.314,37.944-7.314c12.191,0,23.044,1.933,32.563,5.791c9.515,3.862,17.201,8.838,23.054,14.934
		c7.667,7.724,13.063,16.358,16.191,25.906c3.124,9.553,4.69,21.744,4.69,36.573V314.433z M1584.857,270.545v-32.611h-20.115
		c-6.096,0-11.839,0.409-17.22,1.219c-5.386,0.814-10.058,2.186-14.02,4.115c-3.963,1.933-7.115,4.419-9.448,7.467
		c-2.339,3.048-3.505,6.705-3.505,10.972c0,6.095,2.386,11.077,7.162,14.934c4.771,3.862,10.919,5.791,18.438,5.791
		c6.501,0,12.953-1.014,19.354-3.048C1571.904,277.354,1578.353,274.407,1584.857,270.545z"/>
	<path fill="#FFFFFF" d="M1821.969,314.433h-43.888V208.98c0-6.295-0.972-11.833-2.91-16.61c-1.938-4.772-4.49-8.734-7.652-11.886
		c-3.162-3.148-6.839-5.486-11.02-7.01c-4.182-1.524-8.52-2.286-13.006-2.286c-6.733,0-13.162,1.019-19.281,3.048
		c-6.124,2.033-12.039,4.876-17.754,8.534v131.663h-43.888V61.773h43.888l0.306,86.556c6.5-5.076,14.02-8.838,22.553-11.276
		c8.534-2.438,16.763-3.657,24.688-3.657c9.143,0,17.776,1.476,25.905,4.419c8.124,2.948,15.339,7.419,21.64,13.41
		c6.295,5.996,11.276,13.515,14.934,22.554c3.657,9.043,5.486,19.763,5.486,32.154V314.433z"/>
	<path fill="#FFFFFF" d="M2015.805,314.433h-43.888V209.285c0-6.296-0.972-11.834-2.91-16.61c-1.938-4.772-4.538-8.734-7.805-11.886
		c-3.267-3.148-6.991-5.486-11.172-7.01c-4.182-1.524-8.52-2.286-13.006-2.286c-6.733,0-13.367,1.171-19.896,3.505
		c-6.529,2.338-12.443,6.048-17.749,11.125v128.311h-43.888V138.272h43.888l0.306,13.105c2.638-2.638,5.891-5.076,9.752-7.314
		c3.857-2.233,7.872-4.115,12.039-5.638c4.162-1.524,8.429-2.691,12.801-3.505c4.366-0.809,8.581-1.219,12.648-1.219
		c8.938,0,17.524,1.424,25.753,4.267c8.229,2.848,15.544,7.215,21.944,13.105c6.4,5.896,11.528,13.515,15.391,22.858
		c3.857,9.348,5.791,20.42,5.791,33.22V314.433z"/>
</g>
</svg>
