<?xml version="1.0" encoding="utf-8"?>
<!-- Generator: Adobe Illustrator 16.0.0, SVG Export Plug-In . SVG Version: 6.00 Build 0)  -->
<!DOCTYPE svg PUBLIC "-//W3C//DTD SVG 1.1//EN" "http://www.w3.org/Graphics/SVG/1.1/DTD/svg11.dtd">
<svg version="1.1" id="Layer_1" xmlns="http://www.w3.org/2000/svg" xmlns:xlink="http://www.w3.org/1999/xlink" x="0px" y="0px"
	 width="856.45px" height="385.351px" viewBox="0 0 856.45 385.351" enable-background="new 0 0 856.45 385.351"
	 xml:space="preserve">
<g>
	<path fill="#4D4D4D" d="M856.45,291.641c0,51.541-42.17,93.71-93.71,93.71H564.809c-51.541,0-93.71-42.169-93.71-93.71V93.71
		c0-51.541,42.17-93.71,93.71-93.71H762.74c51.541,0,93.71,42.169,93.71,93.71V291.641z"/>
</g>
<g>
	<path fill="#4D4D4D" d="M385.351,291.641c0,51.541-42.169,93.71-93.71,93.71H93.71c-51.541,0-93.71-42.169-93.71-93.71V93.71
		C0,42.169,42.169,0,93.71,0h197.93c51.541,0,93.71,42.169,93.71,93.71V291.641z"/>
</g>
<polygon fill="#FFFFFF" points="698.805,157.643 698.805,227.706 768.87,227.706 768.87,297.77 558.679,297.77 558.679,227.706 
	628.742,227.706 628.742,157.643 558.679,157.643 558.679,87.581 768.87,87.581 768.87,157.643 "/>
<g>
	<g>
		<path fill="#FFFFFF" d="M257.531,44.551c-21.08,0-38.23,17.15-38.23,38.23c0,16.24,10.17,30.15,24.48,35.68v14.68
			c0,0.12-0.21,12.45-6.52,24.14c-7.82,14.44-21.28,21.47-41.15,21.47h-6.77c-38.74,0-57.34,20.21-66.12,37.16
			c-8.99,17.34-9.24,34.19-9.24,36.05v14.92c-14.26,5.56-24.4,19.44-24.4,35.64c0,21.09,17.16,38.24,38.24,38.24
			s38.23-17.15,38.23-38.24c0-16.2-10.13-30.08-24.39-35.63v-14.93c0-0.11,0.17-11.79,6.14-23.32
			c7.74-14.94,21.33-22.21,41.54-22.21h6.77c38.73,0,57.33-20.21,66.12-37.16c8.98-17.34,9.24-34.19,9.24-36.05v-14.84
			c14.21-5.57,24.29-19.43,24.29-35.6C295.761,61.701,278.611,44.551,257.531,44.551z M147.011,302.521
			c0,10.58-8.61,19.19-19.19,19.19s-19.19-8.61-19.19-19.19c0-10.58,8.61-19.19,19.19-19.19S147.011,291.941,147.011,302.521z
			 M257.531,101.971c-10.58,0-19.19-8.61-19.19-19.19s8.61-19.19,19.19-19.19s19.19,8.61,19.19,19.19
			S268.111,101.971,257.531,101.971z"/>
	</g>
</g>
</svg>
