<?xml version="1.0" encoding="utf-8"?>
<!-- Generator: Adobe Illustrator 16.0.0, SVG Export Plug-In . SVG Version: 6.00 Build 0)  -->
<!DOCTYPE svg PUBLIC "-//W3C//DTD SVG 1.1//EN" "http://www.w3.org/Graphics/SVG/1.1/DTD/svg11.dtd">
<svg version="1.1" id="Layer_1" xmlns="http://www.w3.org/2000/svg" xmlns:xlink="http://www.w3.org/1999/xlink" x="0px" y="0px"
	 width="1244.734px" height="385.352px" viewBox="0 0 1244.734 385.352" enable-background="new 0 0 1244.734 385.352"
	 xml:space="preserve">
<polygon fill="#4D4D4D" points="256.899,128.449 256.899,256.899 385.353,256.899 385.353,385.352 0,385.352 0,256.899 
	128.449,256.899 128.449,128.449 0,128.449 0,0 385.353,0 385.353,128.449 "/>
<g>
	<path fill="#4D4D4D" d="M602.277,314.433h-47.24V70.917h47.24V314.433z"/>
	<path fill="#4D4D4D" d="M802.208,314.433h-43.888V209.285c0-6.296-0.972-11.834-2.91-16.61c-1.938-4.772-4.538-8.734-7.805-11.886
		c-3.267-3.148-6.991-5.486-11.172-7.01c-4.181-1.524-8.52-2.286-13.005-2.286c-6.734,0-13.367,1.171-19.896,3.505
		c-6.529,2.338-12.443,6.048-17.749,11.125v128.311h-43.888V138.272h43.888l0.305,13.105c2.638-2.638,5.891-5.076,9.753-7.314
		c3.857-2.233,7.872-4.115,12.039-5.638c4.162-1.524,8.429-2.691,12.801-3.505c4.367-0.809,8.581-1.219,12.648-1.219
		c8.938,0,17.525,1.424,25.753,4.267c8.229,2.848,15.544,7.215,21.944,13.105c6.4,5.896,11.529,13.515,15.392,22.858
		c3.857,9.348,5.791,20.42,5.791,33.22V314.433z"/>
	<path fill="#4D4D4D" d="M933.868,310.471c-4.473,2.848-9.654,4.976-15.544,6.4c-5.896,1.419-11.787,2.134-17.678,2.134
		c-10.362,0-19.101-1.271-26.211-3.81c-7.114-2.538-12.801-6.448-17.066-11.734c-4.268-5.281-7.367-11.986-9.297-20.115
		c-1.933-8.125-2.895-17.677-2.895-28.649v-77.108h-23.163v-19.811c14.22-5.891,25.753-14.629,34.592-26.21
		c8.839-11.582,14.882-26.616,18.134-45.107h14.324v51.507h44.497v39.621h-44.497v80.156c0,4.472,0.559,8.129,1.678,10.972
		c1.113,2.848,2.59,5.081,4.418,6.705c1.829,1.628,3.91,2.743,6.248,3.353c2.334,0.609,4.824,0.914,7.467,0.914
		c3.453,0,7.62-0.609,12.496-1.829c4.876-1.219,9.038-3.248,12.497-6.095V310.471z"/>
	<path fill="#4D4D4D" d="M1086.255,156.559l-23.468,37.183c-4.267-4.671-8.991-8.786-14.172-12.343
		c-5.182-3.553-10.415-5.333-15.696-5.333c-2.848,0-5.943,0.662-9.296,1.981c-3.353,1.324-6.505,3.505-9.447,6.553
		c-2.948,3.048-5.438,7.062-7.468,12.039c-2.033,4.981-3.048,11.125-3.048,18.439v99.357h-43.888V138.272h43.888v18.896
		c5.281-7.515,11.125-13.306,17.525-17.373c6.4-4.062,13.563-6.095,21.486-6.095c7.72,0,15.286,2.085,22.706,6.248
		C1072.792,144.115,1079.75,149.654,1086.255,156.559z"/>
	<path fill="#4D4D4D" d="M1244.734,314.433h-43.888v-9.448c-7.725,5.286-15.901,8.943-24.534,10.972
		c-8.639,2.029-17.525,3.048-26.668,3.048c-8.534,0-16.258-1.271-23.163-3.81c-6.91-2.538-12.905-6.195-17.982-10.972
		c-5.081-4.771-8.99-10.41-11.733-16.915c-2.743-6.5-4.114-13.715-4.114-21.639c0-9.953,2.181-18.639,6.553-26.058
		c4.366-7.415,10.31-13.61,17.829-18.591c7.515-4.977,16.306-8.687,26.363-11.125s20.877-3.657,32.458-3.657h25.297
		c0-10.362-3.353-18.591-10.058-24.687c-6.705-6.095-16.358-9.143-28.954-9.143c-6.095,0-12.396,1.119-18.896,3.353
		c-6.505,2.238-13.006,6.3-19.506,12.191l-25.906-26.211c9.344-8.938,20.163-15.848,32.459-20.725
		c12.291-4.876,24.939-7.314,37.944-7.314c12.191,0,23.044,1.933,32.563,5.791c9.515,3.862,17.201,8.838,23.054,14.934
		c7.667,7.724,13.063,16.358,16.191,25.906c3.124,9.553,4.69,21.744,4.69,36.573V314.433z M1200.847,270.545v-32.611h-20.115
		c-6.096,0-11.839,0.409-17.22,1.219c-5.386,0.814-10.058,2.186-14.02,4.115c-3.963,1.933-7.115,4.419-9.448,7.467
		c-2.339,3.048-3.505,6.705-3.505,10.972c0,6.095,2.386,11.077,7.162,14.934c4.771,3.862,10.919,5.791,18.438,5.791
		c6.501,0,12.953-1.014,19.354-3.048C1187.894,277.354,1194.342,274.407,1200.847,270.545z"/>
</g>
</svg>
