<?xml version="1.0" encoding="utf-8"?>
<!-- Generator: Adobe Illustrator 16.0.0, SVG Export Plug-In . SVG Version: 6.00 Build 0)  -->
<!DOCTYPE svg PUBLIC "-//W3C//DTD SVG 1.1//EN" "http://www.w3.org/Graphics/SVG/1.1/DTD/svg11.dtd">
<svg version="1.1" id="Layer_1" xmlns="http://www.w3.org/2000/svg" xmlns:xlink="http://www.w3.org/1999/xlink" x="0px" y="0px"
	 width="2430.232px" height="385.351px" viewBox="0 0 2430.232 385.351" enable-background="new 0 0 2430.232 385.351"
	 xml:space="preserve">
<g>
	<path fill="#4D4D4D" d="M1031.851,297.77h-41.373V84.499h41.373V297.77z"/>
	<path fill="#4D4D4D" d="M1206.949,297.77h-38.437v-92.088c0-5.514-0.851-10.364-2.549-14.547c-1.697-4.179-3.975-7.649-6.835-10.41
		c-2.861-2.757-6.123-4.805-9.784-6.14c-3.662-1.334-7.462-2.001-11.391-2.001c-5.897,0-11.707,1.026-17.425,3.069
		c-5.718,2.048-10.898,5.297-15.544,9.743V297.77h-38.437V143.489h38.437l0.267,11.478c2.311-2.311,5.159-4.446,8.542-6.406
		c3.378-1.956,6.894-3.604,10.543-4.938c3.646-1.334,7.382-2.356,11.211-3.069c3.824-0.709,7.516-1.068,11.077-1.068
		c7.828,0,15.348,1.247,22.555,3.737c7.207,2.494,13.613,6.319,19.219,11.478c5.605,5.163,10.097,11.836,13.479,20.019
		c3.378,8.187,5.071,17.884,5.071,29.094V297.77z"/>
	<path fill="#4D4D4D" d="M1322.256,294.299c-3.916,2.494-8.454,4.358-13.612,5.605c-5.164,1.243-10.323,1.869-15.482,1.869
		c-9.075,0-16.728-1.114-22.955-3.336c-6.23-2.223-11.21-5.647-14.947-10.277c-3.737-4.625-6.452-10.498-8.142-17.617
		c-1.692-7.115-2.535-15.481-2.535-25.09v-67.531h-20.286v-17.35c12.453-5.159,22.555-12.812,30.296-22.955
		c7.74-10.143,13.033-23.31,15.882-39.504h12.545v45.109h38.971v34.7h-38.971v70.2c0,3.917,0.488,7.119,1.468,9.609
		c0.977,2.494,2.27,4.45,3.871,5.872c1.602,1.426,3.424,2.402,5.472,2.936c2.043,0.534,4.225,0.801,6.539,0.801
		c3.024,0,6.674-0.534,10.944-1.602c4.271-1.067,7.916-2.844,10.943-5.338V294.299z"/>
	<path fill="#4D4D4D" d="M1455.716,159.504l-20.554,32.564c-3.736-4.091-7.874-7.695-12.411-10.81
		c-4.538-3.111-9.121-4.671-13.747-4.671c-2.494,0-5.205,0.58-8.141,1.735c-2.937,1.159-5.697,3.069-8.274,5.739
		c-2.582,2.669-4.764,6.185-6.54,10.543c-1.78,4.362-2.669,9.743-2.669,16.148v87.017h-38.437V143.489h38.437v16.549
		c4.625-6.582,9.742-11.653,15.348-15.215c5.605-3.558,11.878-5.338,18.818-5.338c6.761,0,13.388,1.827,19.886,5.472
		C1443.925,148.606,1450.019,153.457,1455.716,159.504z"/>
	<path fill="#4D4D4D" d="M1594.512,297.77h-38.437v-8.274c-6.765,4.629-13.926,7.833-21.487,9.609
		c-7.565,1.777-15.348,2.669-23.355,2.669c-7.474,0-14.238-1.114-20.286-3.336c-6.052-2.223-11.303-5.426-15.748-9.609
		c-4.45-4.179-7.874-9.117-10.276-14.814c-2.402-5.693-3.604-12.012-3.604-18.952c0-8.717,1.91-16.324,5.738-22.822
		c3.825-6.494,9.03-11.92,15.615-16.282c6.581-4.358,14.28-7.607,23.089-9.743s18.284-3.203,28.427-3.203h22.155
		c0-9.075-2.937-16.282-8.809-21.621s-14.326-8.008-25.357-8.008c-5.339,0-10.856,0.98-16.55,2.937
		c-5.697,1.96-11.39,5.518-17.083,10.677l-22.688-22.955c8.184-7.829,17.659-13.88,28.428-18.151
		c10.765-4.271,21.842-6.406,33.231-6.406c10.677,0,20.182,1.693,28.519,5.072c8.333,3.382,15.064,7.741,20.19,13.079
		c6.715,6.765,11.44,14.326,14.181,22.688c2.735,8.366,4.107,19.043,4.107,32.03V297.77z M1556.075,259.333v-28.561h-17.616
		c-5.339,0-10.369,0.359-15.081,1.068c-4.718,0.713-8.809,1.915-12.279,3.604c-3.47,1.693-6.23,3.87-8.274,6.54
		c-2.048,2.669-3.069,5.872-3.069,9.609c0,5.338,2.09,9.701,6.272,13.079c4.18,3.382,9.563,5.071,16.149,5.071
		c5.692,0,11.344-0.888,16.949-2.669C1544.731,265.297,1550.378,262.715,1556.075,259.333z"/>
	<path fill="#4D4D4D" d="M1789.895,297.77h-45.56l-15.178-48.58c-1.597-5.338-3.595-10.231-5.988-14.681
		c-2.398-4.446-5.284-8.275-8.654-11.478c-3.374-3.203-7.411-5.693-12.116-7.474c-4.704-1.777-10.251-2.669-16.641-2.669h-15.444
		v84.881h-40.839V84.499l84.197-0.267c9.059,0,17.496,1.56,25.312,4.671c7.816,3.115,14.564,7.432,20.249,12.946
		c5.68,5.518,10.122,12.011,13.32,19.485c3.195,7.474,4.797,15.573,4.797,24.29c0,6.231-0.977,12.278-2.92,18.151
		c-1.943,5.872-4.684,11.302-8.22,16.282c-3.537,4.984-7.732,9.388-12.592,13.212c-4.862,3.829-10.21,6.719-16.04,8.675
		c6.715,2.494,12.195,6.097,16.44,10.81c4.246,4.717,7.604,10.368,10.081,16.95c1.234,3.028,2.386,6.052,3.444,9.075
		c1.06,3.028,2.165,6.185,3.316,9.476c1.15,3.295,2.39,6.853,3.716,10.677c1.326,3.829,2.781,8.053,4.375,12.679
		c1.956,5.872,3.778,10.902,5.472,15.081C1786.112,290.875,1787.935,294.566,1789.895,297.77z M1735.977,148.561
		c0-4.98-0.935-9.518-2.803-13.613c-1.868-4.091-4.404-7.649-7.607-10.677c-3.203-3.024-6.985-5.38-11.344-7.073
		c-4.362-1.689-9.034-2.536-14.014-2.536h-29.896v66.464h29.896c4.979,0,9.651-0.755,14.014-2.269
		c4.358-1.51,8.141-3.691,11.344-6.54c3.203-2.844,5.739-6.273,7.607-10.276C1735.042,158.036,1735.977,153.544,1735.977,148.561z"
		/>
	<path fill="#4D4D4D" d="M1969.53,220.629c0,11.569-2.135,22.288-6.406,32.164c-4.271,9.876-10.143,18.417-17.616,25.624
		c-7.474,7.207-16.24,12.904-26.292,17.083c-10.056,4.179-20.778,6.273-32.164,6.273c-11.39,0-22.066-2.094-32.03-6.273
		c-9.968-4.179-18.685-9.917-26.158-17.216c-7.475-7.294-13.347-15.882-17.617-25.758s-6.406-20.507-6.406-31.897
		c0-11.211,2.177-21.754,6.54-31.63c4.358-9.876,10.276-18.505,17.75-25.892c7.474-7.382,16.19-13.167,26.158-17.35
		c9.964-4.179,20.553-6.273,31.764-6.273c11.386,0,22.108,2.094,32.164,6.273c10.052,4.183,18.818,9.876,26.292,17.083
		c7.474,7.207,13.346,15.794,17.616,25.758C1967.396,198.566,1969.53,209.243,1969.53,220.629z M1931.094,220.629
		c0-6.582-1.155-12.721-3.462-18.418c-2.306-5.693-5.455-10.677-9.446-14.947c-3.991-4.271-8.649-7.607-13.972-10.01
		c-5.321-2.402-10.998-3.604-17.028-3.604c-6.031,0-11.712,1.201-17.033,3.604s-9.98,5.739-13.972,10.01
		c-3.991,4.271-7.141,9.254-9.446,14.947c-2.307,5.697-3.458,11.836-3.458,18.418c0,6.585,1.151,12.725,3.458,18.417
		c2.306,5.697,5.455,10.677,9.446,14.947c3.991,4.271,8.65,7.607,13.972,10.01s11.002,3.604,17.033,3.604
		c6.03,0,11.707-1.201,17.028-3.604c5.322-2.402,9.98-5.739,13.972-10.01c3.991-4.271,7.141-9.25,9.446-14.947
		C1929.938,233.354,1931.094,227.215,1931.094,220.629z"/>
	<path fill="#4D4D4D" d="M2130.218,297.77h-38.438v-11.745c-2.494,2.494-5.384,4.671-8.675,6.54
		c-3.295,1.869-6.765,3.47-10.41,4.805c-3.649,1.334-7.386,2.356-11.21,3.07c-3.829,0.709-7.433,1.067-10.811,1.067
		c-7.833,0-15.349-1.247-22.555-3.737c-7.207-2.49-13.571-6.314-19.085-11.478c-5.519-5.159-9.922-11.832-13.213-20.019
		c-3.295-8.183-4.938-17.884-4.938-29.095v-93.689h38.438v91.821c0,5.518,0.842,10.368,2.535,14.547
		c1.689,4.183,3.912,7.653,6.673,10.41c2.757,2.761,5.96,4.805,9.609,6.139c3.646,1.334,7.428,2.002,11.345,2.002
		c12.453,0,23.222-4.271,32.297-12.813V143.489h38.438V297.77z"/>
	<path fill="#4D4D4D" d="M2248.193,294.299c-3.916,2.494-8.454,4.358-13.612,5.605c-5.164,1.243-10.323,1.869-15.482,1.869
		c-9.075,0-16.728-1.114-22.955-3.336c-6.23-2.223-11.21-5.647-14.947-10.277c-3.737-4.625-6.452-10.498-8.142-17.617
		c-1.692-7.115-2.535-15.481-2.535-25.09v-67.531h-20.286v-17.35c12.453-5.159,22.555-12.812,30.296-22.955
		c7.74-10.143,13.033-23.31,15.882-39.504h12.545v45.109h38.971v34.7h-38.971v70.2c0,3.917,0.488,7.119,1.468,9.609
		c0.977,2.494,2.27,4.45,3.871,5.872c1.602,1.426,3.424,2.402,5.472,2.936c2.043,0.534,4.225,0.801,6.539,0.801
		c3.024,0,6.674-0.534,10.944-1.602c4.271-1.067,7.916-2.844,10.943-5.338V294.299z"/>
	<path fill="#4D4D4D" d="M2430.232,220.362c0,2.494-0.133,5.071-0.4,7.741c-0.267,2.669-0.579,5.43-0.934,8.274H2305.58
		c1.423,4.45,3.425,8.675,6.006,12.679c2.577,4.004,5.739,7.474,9.476,10.41c3.737,2.936,7.962,5.251,12.679,6.94
		c4.713,1.693,9.918,2.536,15.615,2.536c6.94,0,13.88-1.201,20.82-3.604c6.939-2.402,12.72-5.647,17.35-9.743l24.29,24.29
		c-10.677,8.008-21.133,13.659-31.363,16.95c-10.235,3.291-21.045,4.938-32.432,4.938c-11.569,0-22.379-2.135-32.431-6.406
		c-10.056-4.271-18.776-10.051-26.158-17.35c-7.387-7.294-13.213-15.882-17.483-25.758s-6.406-20.419-6.406-31.63
		c0-11.211,2.136-21.754,6.406-31.63s10.143-18.459,17.617-25.758c7.474-7.294,16.19-13.08,26.158-17.35
		c9.964-4.271,20.641-6.406,32.03-6.406c10.853,0,21.262,2.002,31.229,6.006c9.964,4.004,18.772,9.567,26.426,16.683
		c7.648,7.119,13.7,15.615,18.15,25.491C2428.006,197.541,2430.232,208.442,2430.232,220.362z M2389.928,205.415
		c-3.028-9.784-8.408-17.659-16.148-23.623c-7.741-5.96-16.508-8.942-26.292-8.942c-9.609,0-18.243,2.982-25.892,8.942
		c-7.653,5.964-12.991,13.838-16.016,23.623H2389.928z"/>
</g>
<g>
	<path fill="#4D4D4D" d="M856.45,291.641c0,51.541-42.169,93.71-93.71,93.71H564.809c-51.541,0-93.71-42.169-93.71-93.71V93.71
		c0-51.541,42.169-93.71,93.71-93.71H762.74c51.541,0,93.71,42.169,93.71,93.71V291.641z"/>
</g>
<g>
	<path fill="#4D4D4D" d="M385.351,291.641c0,51.541-42.169,93.71-93.71,93.71H93.71c-51.541,0-93.71-42.169-93.71-93.71V93.71
		C0,42.169,42.169,0,93.71,0h197.93c51.541,0,93.71,42.169,93.71,93.71V291.641z"/>
</g>
<polygon fill="#FFFFFF" points="698.805,157.643 698.805,227.706 768.87,227.706 768.87,297.77 558.679,297.77 558.679,227.706 
	628.742,227.706 628.742,157.643 558.679,157.643 558.679,87.581 768.87,87.581 768.87,157.643 "/>
<g>
	<g>
		<path fill="#FFFFFF" d="M257.531,44.551c-21.08,0-38.23,17.15-38.23,38.23c0,16.24,10.17,30.15,24.48,35.68v14.68
			c0,0.12-0.21,12.45-6.52,24.14c-7.82,14.44-21.28,21.47-41.15,21.47h-6.77c-38.74,0-57.34,20.21-66.12,37.16
			c-8.99,17.34-9.24,34.19-9.24,36.05v14.92c-14.26,5.56-24.4,19.44-24.4,35.64c0,21.09,17.16,38.24,38.24,38.24
			s38.23-17.15,38.23-38.24c0-16.2-10.13-30.08-24.39-35.63v-14.93c0-0.11,0.17-11.79,6.14-23.32
			c7.74-14.94,21.33-22.21,41.54-22.21h6.77c38.73,0,57.33-20.21,66.12-37.16c8.98-17.34,9.24-34.19,9.24-36.05v-14.84
			c14.21-5.57,24.29-19.43,24.29-35.6C295.761,61.701,278.611,44.551,257.531,44.551z M147.011,302.521
			c0,10.58-8.61,19.19-19.19,19.19s-19.19-8.61-19.19-19.19c0-10.58,8.61-19.19,19.19-19.19S147.011,291.941,147.011,302.521z
			 M257.531,101.971c-10.58,0-19.19-8.61-19.19-19.19s8.61-19.19,19.19-19.19s19.19,8.61,19.19,19.19
			S268.111,101.971,257.531,101.971z"/>
	</g>
</g>
</svg>
