<?xml version="1.0" encoding="utf-8"?>
<!-- Generator: Adobe Illustrator 16.0.0, SVG Export Plug-In . SVG Version: 6.00 Build 0)  -->
<!DOCTYPE svg PUBLIC "-//W3C//DTD SVG 1.1//EN" "http://www.w3.org/Graphics/SVG/1.1/DTD/svg11.dtd">
<svg version="1.1" id="Layer_1" xmlns="http://www.w3.org/2000/svg" xmlns:xlink="http://www.w3.org/1999/xlink" x="0px" y="0px"
	 width="512px" height="512px" viewBox="0 0 512 512" enable-background="new 0 0 512 512" xml:space="preserve">
<g>
	<defs>
		<rect id="SVGID_1_" width="512" height="512"/>
	</defs>
	<clipPath id="SVGID_2_">
		<use xlink:href="#SVGID_1_"  overflow="visible"/>
	</clipPath>
	<path clip-path="url(#SVGID_2_)" fill="none" stroke="#000000" stroke-width="20" stroke-miterlimit="10" d="M307.596,206.838
		c0,43.899-27.412,81.396-66.054,96.307c-11.524,4.447-24.046,6.885-37.137,6.885c-15.829,0-30.826-3.563-44.231-9.933
		c-34.86-16.563-58.961-52.097-58.961-93.259c0-56.991,46.2-103.191,103.192-103.191
		C261.396,103.647,307.596,149.847,307.596,206.838z"/>
	
		<line clip-path="url(#SVGID_2_)" fill="none" stroke="#000000" stroke-width="20" stroke-miterlimit="10" x1="101.213" y1="206.838" x2="101.213" y2="93.912"/>
	
		<circle clip-path="url(#SVGID_2_)" fill="none" stroke="#29ABE2" stroke-width="20" stroke-miterlimit="10" cx="307.596" cy="305.162" r="103.191"/>
	
		<line clip-path="url(#SVGID_2_)" fill="none" stroke="#29ABE2" stroke-width="20" stroke-miterlimit="10" x1="410.787" y1="305.162" x2="410.787" y2="418.088"/>
	
		<circle clip-path="url(#SVGID_2_)" fill="none" stroke="#000000" stroke-width="3.144" stroke-miterlimit="10" cx="110.165" cy="401.104" r="16.219"/>
	
		<line clip-path="url(#SVGID_2_)" fill="none" stroke="#000000" stroke-width="3.144" stroke-miterlimit="10" x1="93.945" y1="401.104" x2="93.945" y2="383.354"/>
	
		<circle clip-path="url(#SVGID_2_)" fill="none" stroke="#000000" stroke-width="3.144" stroke-miterlimit="10" cx="147.153" cy="400.338" r="16.219"/>
	
		<line clip-path="url(#SVGID_2_)" fill="none" stroke="#000000" stroke-width="3.144" stroke-miterlimit="10" x1="163.373" y1="400.338" x2="163.373" y2="418.088"/>
	<path clip-path="url(#SVGID_2_)" fill="none" stroke="#000000" stroke-width="3.144" stroke-miterlimit="10" d="M200.362,400.338
		c0-8.958-7.262-16.22-16.22-16.22s-16.219,7.262-16.219,16.22"/>
	
		<line clip-path="url(#SVGID_2_)" fill="none" stroke="#000000" stroke-width="3.144" stroke-miterlimit="10" x1="167.922" y1="400.338" x2="167.922" y2="418.088"/>
	<path clip-path="url(#SVGID_2_)" fill="none" stroke="#000000" stroke-width="3.144" stroke-miterlimit="10" d="M237.351,401.868
		c0,8.958-7.262,16.22-16.22,16.22s-16.219-7.262-16.219-16.22"/>
	
		<line clip-path="url(#SVGID_2_)" fill="none" stroke="#000000" stroke-width="3.144" stroke-miterlimit="10" x1="204.911" y1="401.868" x2="204.911" y2="384.118"/>
	
		<line clip-path="url(#SVGID_2_)" fill="none" stroke="#000000" stroke-width="3.144" stroke-miterlimit="10" x1="204.911" y1="392.229" x2="222.661" y2="392.229"/>
	<path clip-path="url(#SVGID_2_)" fill="none" stroke="#000000" stroke-width="20" stroke-miterlimit="10" d="M241.542,303.145
		c-11.524,4.447-24.046,6.885-37.138,6.885c-15.828,0-30.825-3.563-44.23-9.933"/>
</g>
</svg>
