<?xml version="1.0" encoding="utf-8"?>
<!-- Generator: Adobe Illustrator 16.0.0, SVG Export Plug-In . SVG Version: 6.00 Build 0)  -->
<!DOCTYPE svg PUBLIC "-//W3C//DTD SVG 1.1//EN" "http://www.w3.org/Graphics/SVG/1.1/DTD/svg11.dtd">
<svg version="1.1" id="Layer_1" xmlns="http://www.w3.org/2000/svg" xmlns:xlink="http://www.w3.org/1999/xlink" x="0px" y="0px"
	 width="173.999px" height="219.716px" viewBox="0 0 173.999 219.716" enable-background="new 0 0 173.999 219.716"
	 xml:space="preserve">
<g>
	<g>
		<path fill="#FFC90E" d="M47.2,37.476v22.411h24.088v24.72H47.2v77.975H16.055V84.378H0V59.887h16.055V38.166
			c0-8.633,3.608-17.961,9.643-24.953C30.899,7.181,40.347,0,55.827,0h19.13v27.243H56.744C51.665,27.243,47.2,32.024,47.2,37.476z"
			/>
	</g>
	<g>
		<path fill="#FF7F27" d="M173.999,158.186v61.53h-32.063V155.66c0-6.601-5.22-13.672-12.985-13.672h-2.752
			c-14.115,0-22.853,12.102-22.853,23.309v54.42H71.288V59.887h32.058v59.363c7.335-3.295,15.618-4.963,24.688-4.963
			c17.731,0,28.65,8.221,34.68,15.119C169.777,137.486,173.999,148.247,173.999,158.186z"/>
	</g>
</g>
</svg>
