<?xml version="1.0" encoding="utf-8"?>
<!-- Generator: Adobe Illustrator 16.0.0, SVG Export Plug-In . SVG Version: 6.00 Build 0)  -->
<!DOCTYPE svg PUBLIC "-//W3C//DTD SVG 1.1//EN" "http://www.w3.org/Graphics/SVG/1.1/DTD/svg11.dtd">
<svg version="1.1" id="Layer_1" xmlns="http://www.w3.org/2000/svg" xmlns:xlink="http://www.w3.org/1999/xlink" x="0px" y="0px"
	 width="1698.854px" height="830.396px" viewBox="0 0 1698.854 830.396" enable-background="new 0 0 1698.854 830.396"
	 xml:space="preserve">
<g enable-background="new    ">
	<path fill="#003875" d="M41.718,110.933h165.23v41.57H90.973V355.81H41.718V110.933z M122.412,257.649l-22.706-45.412h77.55v45.412
		H122.412z"/>
	<path fill="#003875" d="M277.858,178.353c12.576,0,24.333,2.391,35.282,7.161c10.944,4.776,20.49,11.238,28.645,19.388
		c8.149,8.154,14.612,17.701,19.388,28.645c4.771,10.949,7.161,22.592,7.161,34.933c0,12.347-2.391,23.988-7.161,34.933
		c-4.776,10.949-11.238,20.495-19.388,28.645c-8.154,8.154-17.701,14.617-28.645,19.388c-10.949,4.771-22.706,7.161-35.282,7.161
		s-24.338-2.391-35.282-7.161c-10.949-4.771-20.496-11.233-28.645-19.388c-8.155-8.149-14.617-17.695-19.388-28.645
		c-4.776-10.944-7.161-22.586-7.161-34.933c0-12.341,2.385-23.983,7.161-34.933c4.771-10.943,11.233-20.49,19.388-28.645
		c8.149-8.149,17.695-14.611,28.645-19.388C253.521,180.743,265.283,178.353,277.858,178.353z M277.858,317.034
		c5.818,0,11.233-1.276,16.244-3.842c5.005-2.561,9.432-6.113,13.274-10.655c3.843-4.541,6.866-9.78,9.083-15.719
		c2.21-5.938,3.318-12.401,3.318-19.388c0-6.518-1.108-12.751-3.318-18.689c-2.216-5.938-5.24-11.058-9.083-15.37
		c-3.843-4.307-8.269-7.739-13.274-10.305c-5.011-2.56-10.425-3.843-16.244-3.843c-5.824,0-11.298,1.283-16.418,3.843
		c-5.125,2.565-9.606,5.998-13.449,10.305c-3.842,4.313-6.872,9.432-9.083,15.37c-2.216,5.938-3.318,12.172-3.318,18.689
		c0,6.986,1.103,13.449,3.318,19.388c2.211,5.938,5.24,11.178,9.083,15.719c3.843,4.542,8.324,8.095,13.449,10.655
		C266.56,315.758,272.035,317.034,277.858,317.034z"/>
	<path fill="#003875" d="M461.605,252.061c7.685,2.565,14.726,5.185,21.134,7.859c6.402,2.68,11.992,5.884,16.768,9.606
		c4.771,3.728,8.498,8.209,11.178,13.449c2.674,5.239,4.017,11.473,4.017,18.688v0.35c0,17.701-5.884,31.56-17.641,41.569
		c-11.763,10.016-28.241,15.021-49.43,15.021c-13.274,0-26.319-2.293-39.124-6.867c-12.811-4.579-24.802-11.096-35.98-19.557
		l-0.35-0.349l0.35-0.355l23.754-37.497l0.349,0.349c6.987,7.456,14.901,13.1,23.754,16.942c8.848,3.843,18.279,5.764,28.295,5.764
		c13.738,0,20.61-4.41,20.61-13.241c0-4.181-2.216-7.314-6.637-9.404c-4.426-2.091-9.667-4.066-15.72-5.928
		c-1.168-0.459-2.271-0.748-3.318-0.868c-1.048-0.114-2.156-0.403-3.318-0.873c-6.987-1.855-13.973-3.892-20.959-6.097
		c-6.987-2.205-13.274-5.229-18.864-9.061c-5.589-3.832-10.19-8.706-13.798-14.634c-3.613-5.922-5.415-13.53-5.415-22.826v-0.693
		c0-8.133,1.512-15.566,4.542-22.302c3.023-6.735,7.335-12.543,12.925-17.423c5.589-4.879,12.341-8.651,20.261-11.325
		c7.915-2.669,16.647-4.007,26.199-4.007c11.179,0,22.472,1.692,33.885,5.065c11.408,3.379,22.007,8.329,31.789,14.847v0.698
		l-21.309,38.775l-0.349-0.35c-5.36-5.354-11.997-9.606-19.912-12.75c-7.92-3.145-16.304-4.717-25.151-4.717
		c-1.632,0-3.493,0.12-5.589,0.35c-2.096,0.235-4.017,0.819-5.764,1.747c-1.747,0.933-3.204,2.155-4.367,3.668
		c-1.168,1.517-1.747,3.668-1.747,6.462c0,2.097,0.928,4.018,2.795,5.764c1.861,1.747,4.246,3.379,7.161,4.891
		c2.909,1.518,6.167,2.97,9.781,4.367c3.608,1.397,7.161,2.68,10.655,3.843c0.698,0,1.452,0.119,2.271,0.349
		C460.148,251.597,460.907,251.831,461.605,252.061z"/>
	<path fill="#003875" d="M618.103,252.061c7.685,2.565,14.726,5.185,21.134,7.859c6.402,2.68,11.992,5.884,16.768,9.606
		c4.771,3.728,8.498,8.209,11.178,13.449c2.674,5.239,4.017,11.473,4.017,18.688v0.35c0,17.701-5.884,31.56-17.641,41.569
		c-11.763,10.016-28.241,15.021-49.43,15.021c-13.274,0-26.319-2.293-39.124-6.867c-12.811-4.579-24.802-11.096-35.98-19.557
		l-0.35-0.349l0.35-0.355l23.754-37.497l0.349,0.349c6.987,7.456,14.901,13.1,23.754,16.942c8.848,3.843,18.279,5.764,28.295,5.764
		c13.738,0,20.61-4.41,20.61-13.241c0-4.181-2.216-7.314-6.637-9.404c-4.426-2.091-9.667-4.066-15.72-5.928
		c-1.168-0.459-2.271-0.748-3.318-0.868c-1.048-0.114-2.156-0.403-3.318-0.873c-6.987-1.855-13.973-3.892-20.959-6.097
		c-6.987-2.205-13.274-5.229-18.864-9.061c-5.589-3.832-10.19-8.706-13.798-14.634c-3.613-5.922-5.415-13.53-5.415-22.826v-0.693
		c0-8.133,1.512-15.566,4.542-22.302c3.023-6.735,7.335-12.543,12.925-17.423c5.589-4.879,12.341-8.651,20.261-11.325
		c7.915-2.669,16.647-4.007,26.199-4.007c11.179,0,22.472,1.692,33.885,5.065c11.408,3.379,22.007,8.329,31.789,14.847v0.698
		l-21.309,38.775l-0.349-0.35c-5.36-5.354-11.997-9.606-19.912-12.75c-7.92-3.145-16.304-4.717-25.151-4.717
		c-1.632,0-3.493,0.12-5.589,0.35c-2.096,0.235-4.017,0.819-5.764,1.747c-1.747,0.933-3.204,2.155-4.367,3.668
		c-1.168,1.517-1.747,3.668-1.747,6.462c0,2.097,0.928,4.018,2.795,5.764c1.861,1.747,4.246,3.379,7.161,4.891
		c2.909,1.518,6.167,2.97,9.781,4.367c3.608,1.397,7.161,2.68,10.655,3.843c0.698,0,1.452,0.119,2.271,0.349
		C616.645,251.597,617.404,251.831,618.103,252.061z"/>
	<path fill="#003875" d="M876.253,181.147V355.81h-45.762v-87.555c0-6.769-1.283-13.072-3.843-18.913
		c-2.565-5.835-6.113-10.971-10.654-15.408c-4.542-4.438-9.781-7.882-15.72-10.332c-5.938-2.451-12.172-3.68-18.689-3.68
		c-6.757,0-13.045,1.289-18.863,3.859c-5.824,2.571-11.004,6.021-15.545,10.344c-4.542,4.322-8.095,9.464-10.654,15.425
		c-2.565,5.96-3.843,12.324-3.843,19.104c0,6.55,1.277,12.745,3.843,18.585c2.56,5.84,6.113,10.981,10.654,15.425
		c4.541,4.443,9.721,7.947,15.545,10.518c5.818,2.571,12.106,3.854,18.863,3.854c7.216,0,13.389-1.276,18.514-3.842h0.35v0.698
		l17.466,31.09l-0.35,0.35c-11.413,8.853-25.5,13.274-42.268,13.274c-12.347,0-23.989-2.331-34.933-6.986
		c-10.949-4.656-20.496-11.059-28.645-19.213c-8.155-8.149-14.617-17.696-19.388-28.646c-4.776-10.943-7.161-22.586-7.161-34.932
		c0-12.576,2.385-24.333,7.161-35.282c4.771-10.943,11.233-20.49,19.388-28.645c8.149-8.149,17.695-14.611,28.645-19.388
		c10.944-4.771,22.586-7.161,34.933-7.161c12.106,0,22.706,2.255,31.789,6.758s16.882,11.025,23.405,19.567v-23.53H876.253z"/>
	<path fill="#003875" d="M1021.923,289.089l37.727,24.802l-0.35,0.35c-8.154,13.973-19.158,24.922-33.012,32.836
		c-13.857,7.92-28.818,11.877-44.888,11.877c-12.575,0-24.338-2.391-35.282-7.161c-10.949-4.771-20.495-11.232-28.645-19.387
		c-8.154-8.149-14.617-17.696-19.387-28.646c-4.776-10.943-7.162-22.586-7.162-34.932c0-12.342,2.386-23.983,7.162-34.933
		c4.77-10.944,11.232-20.49,19.387-28.645c8.149-8.149,17.695-14.612,28.645-19.388c10.944-4.771,22.707-7.161,35.282-7.161
		c16.069,0,31.03,3.963,44.888,11.877c13.854,7.92,24.857,18.863,33.012,32.837l0.35,0.349l-38.076,24.803l-0.35-0.35
		c-3.729-8.613-9.143-15.6-16.244-20.96c-7.105-5.354-14.967-8.034-23.579-8.034c-6.288,0-12.172,1.343-17.641,4.018
		c-5.475,2.68-10.19,6.287-14.147,10.829c-3.963,4.541-7.107,9.78-9.432,15.72c-2.331,5.938-3.494,12.286-3.494,19.038
		c0,6.757,1.163,13.045,3.494,18.863c2.324,5.824,5.469,10.889,9.432,15.195c3.957,4.313,8.673,7.686,14.147,10.131
		c5.469,2.445,11.353,3.668,17.641,3.668c8.612,0,16.474-2.386,23.579-7.161c7.102-4.771,12.516-11.468,16.244-20.087l0.35-0.698
		L1021.923,289.089z"/>
	<path fill="#003875" d="M1251.772,181.147c-21.893,21.658-41.805,41.455-59.734,59.385l-71.961,71.961v43.316h-46.461V111.282
		h46.461v140.778l74.057-70.913H1251.772z M1167.585,273.719c10.709,10.714,19.389,19.332,26.025,25.85
		c6.637,6.522,12.051,11.877,16.242,16.069c4.193,4.191,7.512,7.51,9.957,9.955s4.945,4.891,7.51,7.336
		c2.561,2.445,5.529,5.415,8.908,8.908c3.373,3.493,8.09,8.154,14.148,13.973h-57.291l-0.348-0.35l-37.729-37.727L1167.585,273.719z
		"/>
</g>
<g enable-background="new    ">
	<path fill="#003875" d="M106.328,390.021l199.605,287.68v22.129h-64.617L106.328,505.093V699.83H41.71V390.021H106.328z
		 M241.315,390.021h64.617v231.914l-64.617-46.472V390.021z"/>
	<path fill="#003875" d="M444.901,474.997c15.933,0,30.829,3.029,44.701,9.073c13.865,6.051,25.96,14.239,36.292,24.563
		c10.325,10.332,18.513,22.427,24.563,36.292c6.044,13.872,9.073,28.623,9.073,44.258c0,15.643-3.029,30.394-9.073,44.259
		c-6.051,13.872-14.239,25.968-24.563,36.292c-10.332,10.332-22.426,18.52-36.292,24.563c-13.873,6.044-28.768,9.073-44.701,9.073
		s-30.835-3.029-44.701-9.073c-13.872-6.044-25.967-14.231-36.292-24.563c-10.332-10.324-18.52-22.42-24.563-36.292
		c-6.051-13.865-9.073-28.616-9.073-44.259c0-15.635,3.022-30.386,9.073-44.258c6.044-13.865,14.231-25.96,24.563-36.292
		c10.324-10.324,22.419-18.513,36.292-24.563C414.065,478.026,428.968,474.997,444.901,474.997z M444.901,650.703
		c7.372,0,14.232-1.618,20.58-4.868c6.341-3.243,11.95-7.745,16.818-13.499c4.868-5.754,8.699-12.393,11.507-19.916
		c2.8-7.524,4.204-15.712,4.204-24.563c0-8.257-1.404-16.154-4.204-23.679c-2.808-7.523-6.639-14.01-11.507-19.474
		c-4.869-5.456-10.477-9.806-16.818-13.056c-6.348-3.243-13.208-4.869-20.58-4.869c-7.379,0-14.315,1.626-20.801,4.869
		c-6.494,3.25-12.171,7.6-17.04,13.056c-4.869,5.464-8.707,11.95-11.507,19.474c-2.808,7.524-4.205,15.422-4.205,23.679
		c0,8.852,1.397,17.039,4.205,24.563c2.801,7.523,6.639,14.162,11.507,19.916c4.868,5.754,10.546,10.256,17.04,13.499
		C430.586,649.085,437.522,650.703,444.901,650.703z"/>
	<path fill="#003875" d="M667.962,624.148c0,6.791,2.434,12.544,7.303,17.261c4.868,4.723,10.691,7.081,17.482,7.081h42.931v51.34
		h-42.931c-11.507,0-22.351-2.137-32.53-6.417c-10.179-4.274-19.031-10.18-26.555-17.704c-7.524-7.523-13.499-16.299-17.925-26.333
		c-4.426-10.027-6.639-20.802-6.639-32.31V550.68h-31.866v-49.127h31.866v-80.108h58.864V624.148z M735.678,501.553v49.127h-32.751
		l-27.44-49.127H735.678z"/>
	<path fill="#003875" d="M866.681,568.383c9.736,3.25,18.658,6.569,26.776,9.958c8.111,3.396,15.192,7.455,21.243,12.171
		c6.045,4.724,10.768,10.4,14.164,17.04c3.388,6.639,5.089,14.536,5.089,23.678v0.442c0,22.427-7.454,39.985-22.351,52.668
		c-14.902,12.689-35.779,19.031-62.625,19.031c-16.818,0-33.346-2.905-49.569-8.7c-16.23-5.802-31.423-14.059-45.586-24.777
		l-0.443-0.442l0.443-0.45l30.096-47.508l0.442,0.442c8.852,9.446,18.879,16.597,30.096,21.465
		c11.21,4.869,23.16,7.303,35.849,7.303c17.406,0,26.112-5.588,26.112-16.776c0-5.298-2.807-9.267-8.408-11.915
		c-5.609-2.649-12.248-5.152-19.917-7.511c-1.479-0.581-2.876-0.947-4.204-1.1c-1.328-0.145-2.732-0.512-4.205-1.106
		c-8.852-2.351-17.704-4.931-26.555-7.725c-8.852-2.793-16.818-6.624-23.899-11.479c-7.082-4.854-12.911-11.029-17.482-18.54
		c-4.578-7.503-6.86-17.143-6.86-28.92v-0.878c0-10.304,1.916-19.723,5.753-28.257c3.831-8.533,9.294-15.891,16.376-22.073
		c7.081-6.183,15.635-10.961,25.669-14.35c10.027-3.382,21.092-5.076,33.194-5.076c14.163,0,28.471,2.145,42.931,6.418
		c14.453,4.28,27.883,10.553,40.275,18.81v0.885l-26.998,49.127l-0.442-0.442c-6.79-6.784-15.2-12.171-25.228-16.154
		c-10.033-3.983-20.656-5.975-31.866-5.975c-2.068,0-4.426,0.152-7.081,0.442c-2.656,0.298-5.09,1.037-7.303,2.213
		c-2.213,1.183-4.06,2.731-5.532,4.647c-1.48,1.922-2.213,4.646-2.213,8.188c0,2.655,1.175,5.09,3.541,7.303
		c2.358,2.213,5.38,4.28,9.073,6.196c3.686,1.922,7.814,3.762,12.393,5.532c4.571,1.771,9.073,3.396,13.499,4.868
		c0.885,0,1.84,0.152,2.877,0.442C864.834,567.795,865.796,568.092,866.681,568.383z"/>
	<path fill="#003875" d="M1066.728,474.997c15.637,0,30.387,3.029,44.258,9.073c13.865,6.051,25.961,14.239,36.293,24.563
		c10.324,10.332,18.512,22.427,24.563,36.292c6.045,13.872,9.074,28.768,9.074,44.701c0,8.561-0.887,16.818-2.656,24.784
		l-0.443,0.886h-112.416l-28.324-45.144h84.09c-4.135-12.393-10.994-22.572-20.58-30.539c-9.592-7.966-20.877-11.949-33.857-11.949
		c-7.967,0-15.49,1.618-22.572,4.854c-7.08,3.236-13.207,7.572-18.367,13.008c-5.166,5.436-9.225,11.908-12.17,19.404
		c-2.953,7.496-4.426,15.656-4.426,24.474c0,6.764,1.328,13.748,3.982,20.946c2.656,7.206,6.486,13.748,11.508,19.626
		c5.014,5.878,11.064,10.802,18.146,14.771c7.08,3.97,15.047,5.954,23.898,5.954c7.967,0,15.27-1.106,21.908-3.319
		s12.904-7.15,18.811-14.826l0.441-0.443l0.885,0.443l51.34,22.606l-0.885,0.898c-10.621,14.882-24.121,26.486-40.496,34.813
		c-16.375,8.333-33.713,12.496-52.004,12.496c-15.934,0-30.912-2.953-44.922-8.852c-14.018-5.899-26.189-14.011-36.514-24.343
		c-10.332-10.324-18.52-22.42-24.563-36.292c-6.052-13.865-9.074-28.615-9.074-44.258c0-15.934,3.022-30.829,9.074-44.701
		c6.043-13.865,14.23-25.96,24.563-36.292c10.324-10.324,22.496-18.513,36.514-24.563
		C1035.815,478.026,1050.794,474.997,1066.728,474.997z"/>
	<path fill="#003875" d="M1364.586,615.297l47.8,31.423l-0.443,0.442c-10.331,17.704-24.272,31.576-41.824,41.604
		c-17.558,10.034-36.513,15.048-56.872,15.048c-15.933,0-30.835-3.029-44.7-9.073c-13.873-6.044-25.968-14.231-36.292-24.563
		c-10.332-10.324-18.52-22.42-24.563-36.292c-6.051-13.865-9.073-28.615-9.073-44.258c0-15.636,3.022-30.387,9.073-44.259
		c6.044-13.865,14.231-25.96,24.563-36.292c10.324-10.324,22.419-18.513,36.292-24.563c13.865-6.044,28.768-9.072,44.7-9.072
		c20.359,0,39.314,5.021,56.872,15.048c17.552,10.034,31.493,23.899,41.824,41.603l0.443,0.442l-48.242,31.424l-0.442-0.442
		c-4.724-10.913-11.583-19.765-20.58-26.556c-9.004-6.784-18.962-10.18-29.875-10.18c-7.966,0-15.421,1.701-22.35,5.09
		c-6.937,3.396-12.911,7.967-17.925,13.721c-5.021,5.753-9.004,12.392-11.95,19.916c-2.953,7.523-4.426,15.566-4.426,24.121
		c0,8.561,1.473,16.527,4.426,23.899c2.946,7.379,6.93,13.796,11.95,19.252c5.014,5.464,10.988,9.737,17.925,12.835
		c6.929,3.099,14.384,4.647,22.35,4.647c10.913,0,20.871-3.022,29.875-9.073c8.997-6.044,15.856-14.529,20.58-25.448l0.442-0.886
		L1364.586,615.297z"/>
	<path fill="#003875" d="M1654.473,478.538V699.83h-57.979V588.9c0-8.575-1.625-16.563-4.868-23.962
		c-3.251-7.393-7.746-13.899-13.499-19.521c-5.754-5.622-12.393-9.986-19.916-13.091c-7.524-3.105-15.422-4.661-23.679-4.661
		c-8.562,0-16.527,1.632-23.899,4.889c-7.379,3.258-13.941,7.628-19.695,13.105c-5.753,5.477-10.255,11.991-13.499,19.542
		c-3.25,7.552-4.868,15.615-4.868,24.204c0,8.299,1.618,16.147,4.868,23.547c3.244,7.399,7.746,13.914,13.499,19.543
		c5.754,5.629,12.316,10.068,19.695,13.326c7.372,3.257,15.338,4.882,23.899,4.882c9.143,0,16.964-1.618,23.457-4.868h0.442v0.885
		l22.129,39.391l-0.442,0.442c-14.46,11.217-32.309,16.818-53.553,16.818c-15.643,0-30.393-2.953-44.258-8.852
		c-13.873-5.899-25.968-14.011-36.292-24.343c-10.332-10.324-18.52-22.42-24.563-36.292c-6.051-13.865-9.073-28.615-9.073-44.258
		c0-15.934,3.022-30.829,9.073-44.701c6.044-13.865,14.231-25.96,24.563-36.292c10.324-10.324,22.419-18.513,36.292-24.563
		c13.865-6.044,28.615-9.073,44.258-9.073c15.339,0,28.769,2.856,40.275,8.562s21.39,13.969,29.653,24.792v-29.813H1654.473z"/>
</g>
<g>
	<polygon fill="#003875" points="1559.975,194.404 1492.342,126.773 1653.747,32.999 	"/>
	<polygon fill="#003875" points="1492.342,262.037 1559.975,194.404 1653.747,355.81 	"/>
	<polygon fill="#003875" points="1424.71,194.404 1492.342,262.037 1330.938,355.809 	"/>
	<polygon fill="#003875" points="1492.342,126.771 1424.711,194.404 1330.938,32.999 	"/>
</g>
</svg>
