<?xml version="1.0" encoding="utf-8"?>
<!-- Generator: Adobe Illustrator 16.0.0, SVG Export Plug-In . SVG Version: 6.00 Build 0)  -->
<!DOCTYPE svg PUBLIC "-//W3C//DTD SVG 1.1//EN" "http://www.w3.org/Graphics/SVG/1.1/DTD/svg11.dtd">
<svg version="1.1" id="Layer_1" xmlns="http://www.w3.org/2000/svg" xmlns:xlink="http://www.w3.org/1999/xlink" x="0px" y="0px"
	 width="2242.388px" height="686.093px" viewBox="0 0 2242.388 686.093" enable-background="new 0 0 2242.388 686.093"
	 xml:space="preserve">
<g>
	<path fill="#5A86A8" d="M239.294,343.511l3.595-33.951l2.796-27.16l0.399-3.196l1.198-9.187
		c2.396-16.507,4.525-27.691,6.391-33.551c1.86-5.854,4.924-12.245,9.187-19.172l-6.791-4.394l-1.598-0.799l-13.181-7.189
		c-1.335-0.799-1.997-2.396-1.997-4.793c0-2.128,0.53-4.456,1.598-6.99c1.061-2.527,2.996-4.793,5.792-6.79
		s6.391-3.726,10.785-5.192c4.394-1.46,9.118-2.197,14.179-2.197c7.452,0,16.308,1.535,26.562,4.593
		c10.248,3.064,22.698,8.057,37.346,14.979c9.586,4.531,18.636,10.653,27.161,18.373c22.63,20.77,33.951,39.281,33.951,55.52
		c0,20.77-18.642,40.741-55.919,59.913c-6.128,2.934-12.451,5.792-18.972,8.588c-6.528,2.796-12.85,5.392-18.973,7.789
		l-10.385,3.994c9.049,18.374,18.904,35.149,29.557,50.327c10.647,15.178,23.697,31.292,39.143,48.33
		c7.452,7.989,12.913,13.718,16.376,17.175c5.592,5.592,10.116,9.985,13.58,13.181l6.391,5.592l15.178,13.181
		c6.123,5.324,9.187,10.248,9.187,14.779c0,3.195-1.466,6.521-4.394,9.985c-3.195-1.335-7.059-3.064-11.583-5.192
		c-1.598-0.799-5.461-2.796-11.583-5.991c-25.831-13.581-47.469-29.158-64.906-46.732c-17.443-17.575-34.419-41.271-50.926-71.097
		l-7.189-13.979l-0.399,4.394l-0.799,12.782c0,3.463,0,5.991,0,7.589c0,2.665,0,4.662,0,5.991c0,4.793-0.069,9.056-0.2,12.781
		c-0.137,3.732-0.2,6.928-0.2,9.586c0.53,6.128,1.061,11.452,1.598,15.977c0.53,4.531,0.799,7.727,0.799,9.586
		c0,5.33-1.866,8.787-5.592,10.385c-1.335,0.53-4.662,1.46-9.986,2.796c-5.33,1.33-9.723,1.997-13.181,1.997
		c-4.793,0-7.988-1.598-9.586-4.793s-2.396-8.787-2.396-16.776v-20.77l2.396-24.365l1.598-14.379l0.799-7.988
		c0.53-2.659,0.93-5.055,1.198-7.189c0.262-2.128,0.399-6.391,0.399-12.782l-0.799-0.799l-4.394-3.994l-4.394-6.391
		c-1.336-2.396-1.267-4.793,0.2-7.189c1.46-2.396,3.925-4.125,7.389-5.192H239.294z M290.42,235.268
		c-0.799,2.933-1.536,5.929-2.197,8.987c-0.668,3.064-1.267,6.191-1.797,9.386l-1.998,9.187l-2.796,16.775
		c-2.134,11.983-4.131,23.965-5.991,35.948c-0.799,6.391-1.198,13.449-1.198,21.169c0.799,0.537,1.46,0.799,1.997,0.799l8.388-2.396
		l15.578-5.192l7.189-2.796l13.98-5.592c9.049-3.726,16.239-7.252,21.569-10.584c5.323-3.327,10.516-7.121,15.577-11.384
		c3.458-3.195,5.923-6.123,7.389-8.787c1.46-2.659,2.197-5.854,2.197-9.586c0-6.122-2.534-12.182-7.589-18.173
		c-5.062-5.991-12.781-11.783-23.167-17.375c-10.385-5.592-21.837-10.248-34.35-13.979l-11.184-3.195l-0.799,3.595L290.42,235.268z"
		/>
	<path fill="#5A86A8" d="M514.09,312.356l19.971-3.995c2.128-0.53,4.194-0.799,6.191-0.799s3.526,0,4.593,0
		c27.959,0,41.939,16.114,41.939,48.33c0,8.257-0.936,16.913-2.796,25.962c-3.195,15.178-7.926,28.097-14.18,38.744
		c-6.26,10.653-14.847,20.508-25.763,29.557c-20.239,16.514-41.009,24.764-62.31,24.764c-4.263,0-8.656-0.399-13.181-1.198
		c-17.843-2.933-30.556-7.988-38.145-15.178c-7.589-7.19-11.383-17.706-11.383-31.554c0-3.196,0.131-5.723,0.399-7.589l1.198-6.391
		l-5.991,5.991l-0.799,0.799c-5.86,6.928-9.854,11.184-11.983,12.782c-2.134,1.598-4.262,2.134-6.391,1.598
		c-3.458-0.799-5.192-3.058-5.192-6.79c0-2.927,1.335-6.653,3.994-11.184c0.53-1.061,1.997-2.796,4.394-5.192
		c7.189-7.189,15.041-14.91,23.566-23.167c0.53-0.53,1.46-1.46,2.796-2.796c1.33-1.329,3.258-3.794,5.792-7.389
		c2.528-3.595,4.593-7.189,6.191-10.785c1.598-3.595,4.125-10.447,7.589-20.57l3.595-7.989c2.927-6.391,6.253-11.583,9.985-15.577
		c10.385-11.184,18.835-18.973,25.363-23.366c6.522-4.394,12.582-6.59,18.174-6.59c3.726,0,7.052,1.198,9.985,3.595
		c2.927,2.396,4.394,5.461,4.394,9.187C516.087,307.962,515.42,310.228,514.09,312.356z M559.625,397.033
		c1.061-5.323,1.598-10.784,1.598-16.376c0-11.714-2.465-21.101-7.389-28.159c-4.931-7.052-10.385-11.184-16.376-12.382
		c-5.991-1.198-10.454-1.797-13.38-1.797c-4.263,0-7.989,0.668-11.184,1.998c-3.195,1.335-5.86,3.195-7.988,5.592
		c-4.531,5.592-7.727,9.324-9.586,11.184c-1.866,1.866-3.333,3.064-4.394,3.595c-6.391,3.994-10.454,7.127-12.182,9.387
		c-1.735,2.265-3.994,8.057-6.79,17.375c-2.796,9.324-4.194,17.974-4.194,25.962c0,5.062,0.53,9.187,1.598,12.382
		c4.793,17.575,13.443,26.362,25.962,26.362c8.25,0,18.772-3.595,31.554-10.784C545.245,431.252,556.161,416.474,559.625,397.033z"
		/>
	<path fill="#5A86A8" d="M721.39,460.94c2.927-2.128,5.654-4.125,8.188-5.992c2.528-1.859,5.523-4.394,8.987-7.589
		c7.72-7.452,13.443-13.443,17.175-17.974c8.519-9.586,14.51-14.379,17.974-14.379c1.061,0,2.128,0,3.195,0
		c0.799,0.269,1.729,0.537,2.796,0.799c0,8.525-1.935,15.378-5.792,20.57c-3.863,5.192-13.917,14.448-30.156,27.76
		c-8.525,6.653-17.575,12.781-27.161,18.373l-1.198,5.992l-1.598,5.592l-3.595,13.979c-8.525,31.155-17.574,54.053-27.16,68.701
		c-8.525,12.781-18.243,20.501-29.158,23.167c-0.799,0.262-1.598,0.399-2.396,0.399c-1.067,0-1.735,0-1.997,0
		c-9.056,0-13.58-5.062-13.58-15.178c0-4.793,3.595-15.446,10.784-31.954c2.659-5.86,6.653-13.581,11.983-23.167
		c6.653-11.721,14.51-24.502,23.565-38.344l2.796-4.793l3.595-4.793l2.796-10.784l3.195-12.781l7.189-31.554l1.198-7.19l1.598-7.988
		c-7.458,10.123-15.047,19.041-22.767,26.761c-6.128,5.86-11.72,10.784-16.775,14.778c-5.062,3.995-11.053,8.257-17.974,12.782
		c-5.33,3.195-10.123,4.793-14.379,4.793c-9.586,0-15.846-7.189-18.773-21.569l-2.396-14.778l-1.198-22.767l-6.391,5.991
		l-0.799,1.198c-6.659,7.727-10.853,12.251-12.582,13.581c-1.735,1.335-3.663,1.598-5.792,0.799
		c-3.458-0.799-5.192-2.927-5.192-6.391c0-2.659,1.467-6.522,4.394-11.583c0.799-1.061,2.659-3.326,5.592-6.79
		c3.994-4.525,8.25-9.187,12.782-13.98c5.592-6.122,10.385-14.111,14.379-23.965l11.184-30.755c0-0.799,2.658-1.199,7.988-1.199
		c3.726,0,6.79,0,9.187,0c6.123,0,10.385,0.468,12.782,1.398c2.396,0.937,3.326,1.935,2.796,2.996l-8.788,23.166
		c-1.067,2.396-2.065,5.461-2.996,9.187c-0.936,3.732-1.935,8.924-2.996,15.577l-1.198,10.385c-0.537,3.463-0.799,6.459-0.799,8.987
		c0,2.534,0,4.331,0,5.392c0,2.933,0.131,5.192,0.399,6.79c1.33,8.525,5.455,12.782,12.382,12.782c1.859,0,3.595-0.399,5.192-1.198
		c3.458-1.598,6.99-3.926,10.584-6.99c3.595-3.058,8.987-8.451,16.177-16.177c3.726-3.726,8.119-9.786,13.181-18.174
		c5.055-8.388,10.647-19.234,16.776-32.553l2.796-8.388c1.598-5.854,3.326-11.845,5.192-17.974c1.061-2.659,2.528-3.994,4.394-3.994
		c0.531,0,3.258,0.269,8.188,0.799c4.924,0.537,7.92,1.067,8.987,1.598c2.128,1.067,3.195,3.464,3.195,7.189
		c0,4.263-6.391,31.954-19.172,83.08l-7.589,27.56l-1.198,4.793L721.39,460.94z"/>
	<path fill="#5A86A8" d="M1053.301,431.383c1.329,2.665,1.997,4.793,1.997,6.391c0,2.396-1.398,4.462-4.194,6.191
		c-2.796,1.735-7.658,3.932-14.579,6.59l-23.167,9.187l-13.979,4.394c-15.446,4.263-28.359,6.391-38.744,6.391
		c-6.659,0-12.782-0.537-18.374-1.598c0-3.458,0.999-6.054,2.996-7.789c1.997-1.729,6.054-3.395,12.183-4.993
		c29.819-7.452,57.248-21.432,82.28-41.939c12.245-9.848,21.631-21.7,28.159-35.548c6.522-13.842,9.786-28.222,9.786-43.138
		c0-19.703-5.193-38.207-15.578-55.52c-10.385-17.306-25.563-31.417-45.534-42.338c-8.257-4.793-17.175-8.388-26.761-10.784
		l-1.598,7.988l-1.198,6.391l-5.992,37.146l-2.396,12.782l-6.79,37.945l-4.793,25.962l-5.592,28.758
		c-3.464,19.44-6.06,32.69-7.789,39.742c-1.735,7.059-3.264,11.384-4.593,12.981c-2.665,3.195-5.192,5.192-7.589,5.991
		c-1.866,0.537-3.532,0.137-4.993-1.198c-1.467-1.329-2.197-3.195-2.197-5.592c0-11.983,1.329-25.026,3.994-39.144l2.396-47.131
		l3.595-45.534c3.458-35.679,5.455-56.718,5.991-63.108c0.531-6.391,1.198-9.848,1.997-10.385l10.785-6.391l1.198-0.799l3.994-2.796
		l-15.977-7.189c-13.849-6.391-20.77-11.046-20.77-13.979c0-1.86,1.329-5.193,3.994-9.986c1.598-2.927,5.192-4.394,10.784-4.394
		c4.793,0,10.185,0.668,16.177,1.997c5.991,1.335,14.978,3.994,26.961,7.988l53.123,17.175c2.397,1.335,4.394,2.396,5.992,3.195
		c0.799,0.537,4.125,2.796,9.985,6.79c38.875,29.295,58.315,63.109,58.315,101.453c0,18.111-4.73,35.885-14.179,53.323
		c-9.455,17.443-23.766,33.888-42.938,49.328L1053.301,431.383z"/>
	<path fill="#5A86A8" d="M1165.536,387.447l-7.988,7.189l-18.374,17.175c-4.263,4.793-8.325,9.255-12.182,13.38
		c-3.863,4.132-6.659,6.591-8.388,7.39c-1.735,0.799-2.996,1.198-3.794,1.198c-2.665,0-4.662-0.861-5.991-2.596
		c-1.329-1.729-1.997-3.657-1.997-5.792c0-3.195,1.467-6.253,4.394-9.187l12.382-11.982l2.796-2.796l12.781-12.782l25.563-26.362
		l5.592-5.991c9.05-9.318,15.977-13.979,20.77-13.979c2.396,0,6.922,1.136,13.581,3.395c6.652,2.265,10.716,4.793,12.182,7.589
		c1.461,2.796,2.197,11.652,2.197,26.562c0.53,5.33,1.061,9.586,1.598,12.781c0.53,3.195,1.46,7.589,2.796,13.181l3.195,10.784
		c6.921,22.368,16.639,33.551,29.158,33.551c5.854,0,12.113-2.527,18.772-7.589c5.055-3.994,8.787-7.052,11.184-9.187
		c2.396-2.128,4.656-4.256,6.79-6.391c4.793-5.592,8.251-9.187,10.385-10.785c2.129-1.598,4.257-2.128,6.391-1.598
		c4.794,1.067,6.653,3.994,5.593,8.787c-0.537,2.665-1.798,5.33-3.795,7.989c-1.997,2.665-6.06,7.327-12.183,13.979l-13.979,11.983
		c-11.184,9.324-21.837,15.977-31.954,19.971c-14.116,5.854-25.032,8.788-32.752,8.788c-9.056,0-16.713-4.063-22.967-12.183
		c-6.26-8.12-12.981-22.43-20.171-42.938c-2.665-7.19-4.861-13.98-6.59-20.371C1168.794,404.223,1167.134,396.502,1165.536,387.447z
		 M1183.909,250.845c-0.536-3.458-0.068-7.252,1.398-11.383c1.46-4.125,4.524-9.249,9.187-15.378
		c4.655-6.122,9.917-10.915,15.777-14.379c2.927-1.86,6.253-2.796,9.985-2.796c8.787,0,14.909,4.793,18.373,14.379
		c1.598,3.995,2.396,8.388,2.396,13.181c0,6.659-1.734,12.918-5.192,18.772c-4.793,7.727-11.583,13.05-20.37,15.977
		c-2.934,0.799-5.729,1.198-8.388,1.198C1193.758,270.417,1186.038,263.895,1183.909,250.845z"/>
	<path fill="#5A86A8" d="M1376.028,319.545h5.592c11.715,0,19.235,3.463,22.567,10.385c3.327,6.928,4.993,22.368,4.993,46.333
		c0,13.58-4.132,32.222-12.382,55.919l-1.997,5.592l-0.799,1.997c6.391-4.793,10.385-8.25,11.982-10.385l14.379-14.379
		c2.927-1.061,6.653-0.662,11.184,1.198c0,6.659-1.866,12.251-5.592,16.776c-2.135,2.665-5.991,6.528-11.583,11.583l-14.778,13.98
		c-0.799,0.537-3.595,2.396-8.388,5.592c-2.665,1.598-4.132,2.534-4.395,2.796c-0.268,0.537-0.536,1.067-0.799,1.598
		c-1.865,3.195-3.332,5.854-4.394,7.988c-2.664,5.324-7.857,7.989-15.577,7.989c-3.195,0-6.391-0.799-9.586-2.397
		c-6.659-3.463-11.253-8.924-13.78-16.376c-2.533-7.452-3.794-12.644-3.794-15.578c0-2.927,1.129-4.793,3.395-5.592
		c2.26-0.799,6.191-1.198,11.783-1.198c2.396,0,6.391-1.46,11.982-4.394l1.997-7.988c3.994-15.708,5.991-28.222,5.991-37.546
		c0-6.122-0.799-11.982-2.396-17.574l-10.385,7.988c-8.525,6.927-16.114,13.581-22.767,19.971
		c-5.33,5.061-9.056,9.056-11.185,11.982c-3.994,5.592-8.524,10.922-13.58,15.977c-2.665,3.195-5.729,2.134-9.187-3.195
		c-1.598-3.196-2.396-5.324-2.396-6.391c0-2.396,1.261-5.124,3.795-8.188c2.527-3.058,7.52-8.188,14.978-15.377
		c2.396-2.397,4.725-4.855,6.99-7.39c2.259-2.527,5.923-6.99,10.984-13.38l7.988-9.986l9.187-11.583
		c5.592-7.452,9.786-13.78,12.582-18.973C1371.436,332.127,1373.895,326.205,1376.028,319.545z"/>
	<path fill="#5A86A8" d="M1417.962,432.981c0-7.989,2.128-14.379,6.391-19.172c1.062-1.061,6.79-6.653,17.175-16.776l2.796-2.796
		l22.368-22.767l27.16-26.362l26.362-23.167c7.988-7.189,15.309-12.245,21.968-15.178c2.128-1.061,4.394-1.598,6.79-1.598
		c6.653,0,10.186,1.797,10.585,5.392c0.399,3.595,0.599,6.859,0.599,9.786c0,3.732-0.268,7.327-0.799,10.784
		c-1.598,8.525-2.933,15.715-3.994,21.569c-1.066,5.86-2.396,11.852-3.994,17.974c-0.269,0.537-2.266,7.189-5.991,19.971
		l-3.994,12.382l-3.595,10.784l4.394-5.192l10.784-12.782l0.799-1.198l7.189-7.589c2.928-2.927,5.992-5.792,9.188-8.587
		s6.122-5.124,8.787-6.99c13.58-10.385,25.026-15.578,34.35-15.578c15.709,0,27.822,16.245,36.348,48.729l2.796,11.583l4.793,24.365
		c1.329,8.787,4.257,12.52,8.787,11.184c3.458-1.061,6.254-2.328,8.388-3.794c2.129-1.46,6.653-4.855,13.581-10.185l5.592-5.192
		c7.451-7.72,12.444-12.713,14.978-14.979c2.528-2.259,4.725-3.395,6.591-3.395c0.53,0,2.659,0.537,6.391,1.598
		c0,7.988-2.196,14.979-6.59,20.97s-13.318,13.78-26.762,23.366c-13.449,9.586-23.902,14.379-31.354,14.379
		c-9.586,0-17.443-7.851-23.565-23.566l-8.388-19.172c-7.458-16.239-17.575-24.365-30.356-24.365
		c-8.787,0-17.574,3.994-26.361,11.982c-3.464,3.195-7.458,7.589-11.983,13.181c-5.86,7.458-12.119,16.513-18.772,27.161
		l-4.793,7.589l-9.187,16.376l-0.799,1.598c-4.793,6.653-11.583,9.586-20.371,8.787c-5.329,0-9.323-1.735-11.982-5.192
		c-2.665-3.464-3.595-7.727-2.796-12.782c2.927-13.312,5.323-23.697,7.189-31.155c0.799-2.659,2.659-8.65,5.592-17.974
		c0.531-1.33,1.261-4.256,2.197-8.788c0.93-4.524,1.929-11.046,2.995-19.571l1.599-11.583l0.799-8.787l0.399-6.391l0.399-5.193
		l-10.386,7.19c-15.178,9.854-26.761,18.373-34.749,25.563c-3.994,3.463-8.388,7.589-13.181,12.382
		c-4.794,4.793-7.727,7.726-8.788,8.787c-7.988,9.324-13.717,13.98-17.175,13.98
		C1423.815,434.579,1421.688,434.048,1417.962,432.981z"/>
	<path fill="#5A86A8" d="M1766.65,416.604c-0.537,3.195-0.668,5.729-0.399,7.589c0,8.788,3.058,15.977,9.187,21.569
		c6.122,5.592,13.979,8.388,23.566,8.388c6.921,0,13.312-1.46,19.172-4.394c9.586-4.524,17.175-9.985,22.767-16.376
		c3.994-3.994,8.188-8.12,12.582-12.382c4.394-4.256,7.789-6.391,10.186-6.391c1.598,0,3.856,0.537,6.79,1.598
		c-1.336,9.324-4.862,17.375-10.585,24.165c-5.729,6.79-17.112,15.777-34.15,26.961c-7.189,4.524-14.517,7.72-21.968,9.586
		c-7.458,1.86-14.517,2.796-21.17,2.796c-13.849,0-25.301-3.595-34.35-10.784c-9.056-7.189-14.647-16.776-16.776-28.758
		c-0.536-3.726-0.799-6.522-0.799-8.388c0-3.726,0.2-6.653,0.6-8.788c0.399-2.128,1.529-5.455,3.395-9.985l-7.988,8.388
		l-10.784,11.583c-3.994,1.335-6.928,0.137-8.787-3.595c-0.799-1.598-1.198-3.196-1.198-4.793c0-2.396,1.729-5.723,5.192-9.985
		c3.458-4.256,9.317-10.248,17.574-17.974l19.572-18.772l4.793-3.994c8.25-7.452,15.708-13.711,22.367-18.773
		c4.524-3.458,10.117-7.589,16.775-12.382c12.245-7.989,22.63-13.512,31.155-16.576c8.519-3.058,15.577-4.593,21.169-4.593
		c6.123,0.537,10.785,2.534,13.98,5.991c3.195,3.464,4.793,7.727,4.793,12.782c0,1.866-0.269,3.863-0.799,5.991
		c-0.537,2.134-1.535,4.861-2.996,8.188c-1.467,3.333-3.663,7.389-6.59,12.182c-5.86,9.586-15.315,18.511-28.359,26.761
		c-13.05,8.257-29.157,15.047-48.33,20.371l-7.988,2.396L1766.65,416.604z M1839.744,351.1c-3.731-2.128-7.189-3.195-10.385-3.195
		c-3.732,0-7.526,1.198-11.384,3.595c-3.862,2.396-9.386,6.927-16.575,13.58l-17.176,15.178c-4.53,5.33-8.656,11.72-12.382,19.172
		c11.982-2.659,23.029-6.791,33.152-12.382c10.116-5.592,17.774-11.115,22.967-16.576
		C1833.154,365.017,1837.079,358.558,1839.744,351.1z"/>
	<path fill="#5A86A8" d="M1998.31,460.94c2.928-2.128,5.654-4.125,8.188-5.992c2.527-1.859,5.523-4.394,8.987-7.589
		c7.72-7.452,13.442-13.443,17.175-17.974c8.519-9.586,14.51-14.379,17.974-14.379c1.062,0,2.129,0,3.195,0
		c0.799,0.269,1.729,0.537,2.796,0.799c0,8.525-1.935,15.378-5.791,20.57c-3.863,5.192-13.918,14.448-30.156,27.76
		c-8.525,6.653-17.574,12.781-27.161,18.373l-1.198,5.992l-1.598,5.592l-3.595,13.979c-8.525,31.155-17.574,54.053-27.16,68.701
		c-8.525,12.781-18.242,20.501-29.158,23.167c-0.799,0.262-1.598,0.399-2.396,0.399c-1.067,0-1.734,0-1.997,0
		c-9.056,0-13.58-5.062-13.58-15.178c0-4.793,3.595-15.446,10.784-31.954c2.659-5.86,6.653-13.581,11.982-23.167
		c6.653-11.721,14.511-24.502,23.566-38.344l2.796-4.793l3.595-4.793l2.796-10.784l3.195-12.781l7.189-31.554l1.198-7.19
		l1.598-7.988c-7.458,10.123-15.047,19.041-22.767,26.761c-6.129,5.86-11.721,10.784-16.776,14.778
		c-5.061,3.995-11.053,8.257-17.974,12.782c-5.33,3.195-10.123,4.793-14.379,4.793c-9.586,0-15.846-7.189-18.772-21.569
		l-2.396-14.778l-1.199-22.767l-6.391,5.991l-0.799,1.198c-6.659,7.727-10.853,12.251-12.581,13.581
		c-1.735,1.335-3.664,1.598-5.792,0.799c-3.457-0.799-5.192-2.927-5.192-6.391c0-2.659,1.467-6.522,4.394-11.583
		c0.799-1.061,2.658-3.326,5.592-6.79c3.994-4.525,8.251-9.187,12.781-13.98c5.592-6.122,10.386-14.111,14.38-23.965l11.184-30.755
		c0-0.799,2.658-1.199,7.988-1.199c3.726,0,6.79,0,9.187,0c6.122,0,10.385,0.468,12.781,1.398c2.396,0.937,3.327,1.935,2.796,2.996
		l-8.787,23.166c-1.067,2.396-2.065,5.461-2.995,9.187c-0.937,3.732-1.935,8.924-2.996,15.577l-1.198,10.385
		c-0.537,3.463-0.799,6.459-0.799,8.987c0,2.534,0,4.331,0,5.392c0,2.933,0.131,5.192,0.399,6.79
		c1.329,8.525,5.455,12.782,12.382,12.782c1.86,0,3.595-0.399,5.192-1.198c3.458-1.598,6.99-3.926,10.585-6.99
		c3.595-3.058,8.987-8.451,16.177-16.177c3.726-3.726,8.119-9.786,13.181-18.174c5.056-8.388,10.647-19.234,16.775-32.553
		l2.796-8.388c1.598-5.854,3.327-11.845,5.192-17.974c1.062-2.659,2.528-3.994,4.395-3.994c0.53,0,3.258,0.269,8.188,0.799
		c4.925,0.537,7.92,1.067,8.987,1.598c2.128,1.067,3.195,3.464,3.195,7.189c0,4.263-6.391,31.954-19.172,83.08l-7.59,27.56
		l-1.198,4.793L1998.31,460.94z"/>
</g>
<g>
	<path fill="#5A86A8" d="M1371.393,593.823c-0.077-0.987-0.134-1.881-0.171-2.679c-0.039-0.798-0.058-1.539-0.058-2.223
		c0-2.736,0.343-5.774,1.026-9.12c2.508-12.691,7.257-22.723,14.25-30.096c6.687-6.991,14.743-11.019,24.167-12.083
		c1.063-0.075,2.07-0.171,3.021-0.285c0.949-0.114,1.995-0.171,3.135-0.171c4.711,0,8.074,1.16,10.089,3.477
		c2.013,2.319,3.4,6.48,4.161,12.483c0.151,1.217,0.228,2.205,0.228,2.964c0,1.445-0.114,2.736-0.342,3.876
		c-0.229,1.14-0.57,2.547-1.026,4.218c-1.444,4.408-3.003,7.6-4.674,9.576c-1.064,1.293-2.356,1.938-3.876,1.938
		c-1.444,0-2.698-0.645-3.762-1.938c-1.444-1.748-2.166-3.837-2.166-6.27c0-3.343,1.482-7.752,4.446-13.224l1.254-1.938
		c0.379-0.607,0.57-1.329,0.57-2.166c0-0.303,0-0.607,0-0.912c-0.077-0.228-0.153-0.493-0.229-0.798
		c-0.305-1.596-1.179-2.868-2.622-3.819c-1.444-0.949-3.42-1.425-5.928-1.425c-2.129,0-4.674,0.438-7.638,1.311
		c-2.964,0.875-5.739,2.793-8.322,5.757c-2.584,2.964-5.016,7.449-7.296,13.452l-2.508,8.208c-0.837,3.269-1.444,6.404-1.824,9.405
		c-0.381,3.003-0.569,5.796-0.569,8.378c0,8.436,1.975,14.82,5.928,19.152c3.95,4.332,9.423,6.498,16.416,6.498
		c4.482,0,8.51-0.912,12.083-2.736c1.824-0.986,3.363-1.938,4.617-2.85s2.223-1.748,2.907-2.508l3.306-3.762
		c1.596-0.303,2.508,0.609,2.736,2.736c0,1.217-0.553,2.433-1.653,3.648c-1.103,1.217-2.49,2.433-4.161,3.648l-4.901,3.648
		l-0.57,0.342c-2.433,1.444-5.415,2.583-8.949,3.42c-3.533,0.835-7.201,1.254-11,1.254c-7.068,0-13.149-1.977-18.24-5.928
		c-5.093-3.951-8.664-9.461-10.716-16.529c-0.305-1.215-0.532-2.223-0.684-3.021
		C1371.695,595.932,1371.544,594.963,1371.393,593.823z"/>
	<path fill="#5A86A8" d="M1464.185,574.672l5.7-1.14c0.607-0.151,1.197-0.228,1.767-0.228c0.57,0,1.007,0,1.312,0
		c7.979,0,11.97,4.599,11.97,13.794c0,2.356-0.268,4.827-0.798,7.41c-0.912,4.332-2.263,8.019-4.047,11.058
		c-1.787,3.041-4.238,5.854-7.354,8.436c-5.776,4.713-11.704,7.068-17.783,7.068c-1.217,0-2.471-0.114-3.763-0.342
		c-5.092-0.837-8.721-2.28-10.887-4.332c-2.166-2.052-3.249-5.053-3.249-9.006c0-0.912,0.038-1.633,0.114-2.166l0.342-1.824
		l-1.71,1.71l-0.228,0.228c-1.673,1.977-2.813,3.192-3.42,3.647c-0.609,0.456-1.217,0.609-1.824,0.456
		c-0.986-0.228-1.481-0.873-1.481-1.938c0-0.835,0.381-1.898,1.14-3.192c0.151-0.303,0.57-0.798,1.254-1.482
		c2.052-2.052,4.293-4.255,6.726-6.612c0.151-0.151,0.417-0.417,0.798-0.798c0.38-0.379,0.931-1.083,1.653-2.109
		c0.722-1.026,1.312-2.052,1.767-3.078c0.456-1.026,1.178-2.982,2.166-5.871l1.026-2.28c0.835-1.824,1.785-3.306,2.85-4.446
		c2.964-3.192,5.376-5.415,7.239-6.669c1.861-1.254,3.591-1.881,5.187-1.881c1.063,0,2.013,0.342,2.851,1.026
		c0.835,0.684,1.254,1.559,1.254,2.622C1464.755,573.418,1464.564,574.064,1464.185,574.672z M1477.181,598.839
		c0.303-1.52,0.456-3.078,0.456-4.674c0-3.344-0.704-6.022-2.109-8.037c-1.407-2.013-2.964-3.192-4.674-3.534
		c-1.71-0.342-2.983-0.513-3.819-0.513c-1.216,0-2.279,0.19-3.191,0.57c-0.912,0.381-1.673,0.912-2.28,1.596
		c-1.293,1.596-2.205,2.661-2.735,3.192c-0.533,0.533-0.951,0.875-1.254,1.026c-1.824,1.14-2.984,2.034-3.478,2.679
		c-0.495,0.646-1.14,2.299-1.938,4.959c-0.798,2.661-1.197,5.13-1.197,7.41c0,1.445,0.151,2.622,0.456,3.534
		c1.368,5.016,3.837,7.523,7.41,7.523c2.354,0,5.357-1.026,9.006-3.078C1473.076,608.605,1476.191,604.388,1477.181,598.839z"/>
	<path fill="#5A86A8" d="M1483.108,608.871c0-0.987,0.097-1.785,0.285-2.394c0.188-0.607,0.551-1.368,1.083-2.28l4.788-4.788
		l5.357-5.928l2.964-3.534l7.296-8.436c1.443-1.748,2.565-2.964,3.363-3.648s1.576-1.178,2.337-1.482
		c1.976-0.835,3.686-1.254,5.13-1.254c1.824,0,2.83,0.552,3.021,1.653c0.189,1.103,0.285,1.977,0.285,2.622c0,0.646,0,1.273,0,1.881
		c0,0.684,0,1.179,0,1.482c0,0.533-0.076,1.331-0.228,2.394l-0.912,8.208l-0.114,0.57l-0.228,1.596l-0.57,2.166l1.596-2.166
		l2.28-3.078l2.166-2.964l2.052-2.508c0.912-1.14,1.71-2.126,2.395-2.964c0.684-0.835,1.405-1.633,2.166-2.394l0.684-0.684
		l4.218-4.104c1.52-1.52,2.925-2.622,4.218-3.306c1.292-0.684,2.355-1.026,3.192-1.026c1.368,0,2.203,0.723,2.508,2.166
		c0,1.14,0,2.014,0,2.622c0,0.761-0.039,1.293-0.114,1.596l-1.481,8.778c-0.685,3.269-1.824,7.524-3.42,12.768l-1.141,3.192
		c2.28-2.964,4.598-5.585,6.954-7.866c0.759-0.759,1.386-1.348,1.881-1.767c0.493-0.417,1.463-1.234,2.907-2.451
		c4.179-2.964,7.484-4.446,9.918-4.446c4.406,0,7.903,4.485,10.487,13.452l0.798,3.192l0.799,4.218l0.569,2.85l0.685,2.508
		c0.303,0.684,0.872,1.026,1.71,1.026c0.986,0,2.279-0.57,3.876-1.71c1.063-0.835,2.108-1.67,3.135-2.508
		c1.025-0.835,1.842-1.596,2.451-2.28c1.519-1.596,2.621-2.679,3.306-3.249c0.684-0.57,1.368-0.855,2.052-0.855
		c0.456,0,1.101,0.114,1.938,0.342c-0.305,2.206-1.083,4.143-2.338,5.814c-1.254,1.673-3.477,3.725-6.668,6.156
		c-4.029,3.041-7.41,4.56-10.146,4.56c-3.191,0-5.967-2.203-8.321-6.612l-0.799-1.71l-1.823-3.762
		c-2.205-4.56-5.017-6.84-8.437-6.84c-2.128,0-4.371,1.103-6.726,3.306c-1.065,0.989-2.166,2.243-3.306,3.762
		c-1.596,2.052-3.269,4.56-5.016,7.523l-1.255,2.28l-2.735,5.13l-0.229,0.342c-0.837,1.14-2.052,1.71-3.647,1.71
		c-0.912,0-1.635-0.267-2.166-0.798c-0.532-0.533-0.761-1.14-0.684-1.824l1.14-6.954c0.075-0.456,0.114-0.873,0.114-1.254
		c0.303-2.887,0.569-5.396,0.798-7.524c0.228-2.127,0.359-3.628,0.398-4.503c0.038-0.873,0.058-1.881,0.058-3.021
		c0-1.215-0.114-2.488-0.342-3.819c-0.229-1.329-0.533-2.754-0.912-4.275l-4.902,5.472l-1.71,2.052l-3.191,3.876
		c-1.065,1.293-2.319,2.889-3.763,4.788c-1.444,1.901-3.154,4.371-5.13,7.41l-2.622,4.104l-1.367,2.052l-2.736,0.114
		c-3.041,0-4.56-0.988-4.56-2.964c0-0.987,0.493-2.773,1.481-5.358l0.57-1.482c1.14-3.42,1.956-6.174,2.451-8.265
		c0.493-2.089,0.74-3.933,0.74-5.529c0-1.899-0.342-3.876-1.025-5.928l-1.71,1.824l-1.254,1.254l-5.358,5.472l-1.481,1.482
		c-0.989,0.989-2.224,2.223-3.705,3.705c-1.482,1.482-2.414,2.49-2.793,3.021c-0.153,0.228-0.495,0.342-1.026,0.342
		C1485.235,609.213,1484.399,609.099,1483.108,608.871z"/>
	<path fill="#5A86A8" d="M1599.158,647.63l3.876-15.162c2.508-9.348,4.56-16.339,6.155-20.976c3.267-10.107,5.928-17.328,7.98-21.66
		c1.747-3.648,3.571-6.384,5.472-8.208c3.191-2.736,6.649-4.104,10.374-4.104c1.67,0,3.323,0.21,4.959,0.627
		c1.633,0.419,3.286,1.197,4.958,2.337c4.939,3.268,7.41,7.486,7.41,12.653c0,4.332-1.749,9.083-5.244,14.25l-2.394,3.078
		l-0.456,0.228l-5.357,4.56l-0.343,0.342l-2.279,1.938c2.052,0,3.799-0.285,5.243-0.855c1.443-0.57,3.571-1.842,6.385-3.819
		c2.811-1.975,4.901-3.685,6.27-5.13c2.508-2.583,4.179-3.876,5.016-3.876c0.456,0,1.026,0.114,1.71,0.342
		c-0.228,2.584-1.14,4.808-2.735,6.669c-1.597,1.863-4.714,4.2-9.349,7.011c-2.889,1.748-6.213,3.115-9.975,4.104
		c-3.762,0.987-7.886,1.482-12.368,1.482c-1.978,0-4.067-0.114-6.271-0.342l-6.042-1.026l-0.228,1.368l-0.229,0.684l-0.228,0.912
		l-1.368,4.674l-2.052,7.866l-1.254,3.876l-1.482,4.902c-1.749,5.472-3.003,8.815-3.762,10.032
		c-0.761,1.215-2.129,1.824-4.104,1.824c-2.28,0-3.819-0.818-4.617-2.451c-0.798-1.635-1.197-4.959-1.197-9.975v-9.69v-0.456
		l0.912-10.488l0.228-2.166l1.026-8.436l1.026-10.488l-1.597,1.71l-3.42,3.534c-0.228,0.228-0.532,0.342-0.911,0.342
		c-1.065-0.303-1.71-0.645-1.938-1.026c-0.228-0.379-0.266-0.949-0.114-1.71c0.153-0.759,0.57-1.671,1.254-2.736
		c0.151-0.303,0.759-0.987,1.824-2.052c2.28-2.354,3.686-3.799,4.218-4.332c1.215-1.292,2.546-3.42,3.99-6.384
		c1.442-2.964,2.696-5.851,3.762-8.664c0.38-1.063,1.141-3.115,2.28-6.156c0.684-1.899,1.101-3.153,1.254-3.762
		c0.456-1.975,0.949-3.836,1.482-5.586c0.53-1.747,1.14-3.534,1.823-5.358c0.456-1.292,1.368-1.938,2.736-1.938
		c0.759,0,1.576,0.324,2.451,0.969c0.872,0.646,1.481,1.254,1.823,1.824c0.343,0.57,0.514,1.35,0.514,2.337
		c0,1.978-1.978,8.513-5.928,19.608c-1.141,3.117-2.28,7.164-3.42,12.141c-1.141,4.979-2.092,9.444-2.851,13.395
		c-1.521,8.208-2.889,18.012-4.104,29.411L1599.158,647.63z M1636.321,595.191c-0.381-1.368-0.798-2.488-1.254-3.363
		c-0.456-0.873-1.122-1.767-1.995-2.679c-0.875-0.912-1.92-1.368-3.135-1.368c-1.824,0-3.42,1.026-4.788,3.078
		c-1.065,1.673-2.052,3.42-2.964,5.244c-0.912,1.824-1.749,3.724-2.508,5.7c-1.368,3.573-2.3,6.423-2.793,8.55
		c-0.495,2.128-0.741,4.143-0.741,6.042c0.456,0.077,1.101,0.114,1.938,0.114c1.597,0,3.268-0.399,5.017-1.197
		c1.747-0.798,3.837-2.146,6.27-4.047c2.432-1.899,4.275-3.97,5.529-6.213c1.254-2.241,1.881-4.464,1.881-6.669
		C1636.777,597.168,1636.624,596.104,1636.321,595.191z"/>
	<path fill="#5A86A8" d="M1691.952,606.249l-2.736,3.192c-2.964,3.42-5.378,5.891-7.239,7.41c-1.863,1.521-3.933,2.773-6.213,3.762
		c-3.801,1.52-6.765,2.28-8.892,2.28c-3.117,0-5.549-0.761-7.296-2.28c-1.749-1.519-2.471-3.381-2.166-5.586
		c0.229-1.443,0.645-3.039,1.254-4.788l1.254-3.42l-2.279,2.052c-0.456,0.456-1.026,0.609-1.71,0.456
		c-0.685-0.151-1.102-0.57-1.254-1.254c-0.229-0.759-0.189-1.52,0.113-2.28c0.303-0.759,0.987-1.67,2.052-2.736l3.534-3.648
		l1.597-1.482l5.243-4.902l1.71-1.596c1.824-1.596,3.837-3.192,6.042-4.788c2.203-1.596,4.256-2.964,6.156-4.104
		c3.95-2.28,7.353-3.933,10.202-4.959c2.851-1.026,5.302-1.539,7.354-1.539c2.432,0,4.142,0.761,5.13,2.28
		c0.228,0.304,0.303,0.684,0.228,1.14c-0.076,0.456-0.267,0.761-0.569,0.912c-0.533,0.305-1.122,0.609-1.768,0.912
		c-0.646,0.305-1.559,0.57-2.735,0.798c-1.18,0.228-3.041,0.932-5.586,2.109c-2.548,1.179-5.605,2.946-9.177,5.301
		c-2.356,1.673-4.352,3.174-5.985,4.503c-1.635,1.331-2.946,2.565-3.933,3.705c-3.42,3.801-5.586,7.145-6.498,10.032
		c-0.153,0.381-0.229,0.912-0.229,1.596c0,2.052,1.026,3.192,3.078,3.42c1.292,0,2.583-0.303,3.876-0.912
		c1.292-0.607,3.115-1.824,5.472-3.648c0.836-0.759,1.406-1.254,1.71-1.482c1.063-0.987,2.241-2.166,3.534-3.534l2.508-2.964
		c4.407-5.7,7.22-9.194,8.437-10.488c1.52-1.596,2.964-2.394,4.332-2.394c0.607,0.076,1.063,0.114,1.367,0.114
		c2.736,0.381,4.104,1.938,4.104,4.674c0,0.533-0.039,0.951-0.114,1.254c-0.456,2.661-1.254,5.093-2.394,7.296l-1.026,3.306
		c-0.456,2.736-0.684,4.636-0.684,5.7c0,1.14,0.245,2.205,0.74,3.192c0.494,0.989,1.349,1.254,2.565,0.798
		c0.835-0.456,1.634-0.95,2.394-1.482c0.759-0.531,2.013-1.634,3.763-3.306l1.367-1.254c1.671-1.976,2.812-3.21,3.42-3.705
		c0.607-0.493,1.254-0.665,1.938-0.513c0.607,0.076,1.063,0.342,1.368,0.798c0.303,0.456,0.379,0.988,0.228,1.596
		c-0.381,1.217-1.025,2.394-1.938,3.534c-1.368,1.444-2.622,2.775-3.763,3.99c-1.977,1.977-4.713,3.953-8.207,5.928
		c-0.912,0.531-1.807,0.912-2.68,1.14c-0.874,0.228-1.729,0.342-2.564,0.342c-3.876,0-6.384-1.785-7.524-5.358
		c-0.152-0.607-0.267-1.311-0.342-2.109c-0.076-0.798-0.114-2.337-0.114-4.617l0.229-3.078L1691.952,606.249z"/>
	<path fill="#5A86A8" d="M1715.434,609.099c0-2.28,0.607-4.104,1.824-5.472c0.303-0.303,1.938-1.898,4.901-4.788l0.799-0.798
		l6.384-6.498l7.752-7.524l7.523-6.612c2.28-2.052,4.369-3.495,6.27-4.332c0.607-0.303,1.254-0.456,1.938-0.456
		c1.898,0,2.907,0.513,3.021,1.539c0.114,1.026,0.171,1.958,0.171,2.793c0,1.065-0.076,2.091-0.228,3.078
		c-0.456,2.433-0.837,4.485-1.14,6.156c-0.305,1.672-0.685,3.382-1.141,5.13c-0.076,0.153-0.646,2.052-1.71,5.7l-1.14,3.534
		l-1.026,3.078l1.254-1.482l3.078-3.648l0.229-0.342l2.052-2.166c0.835-0.835,1.71-1.653,2.622-2.451
		c0.912-0.798,1.747-1.462,2.508-1.995c3.876-2.964,7.143-4.446,9.804-4.446c4.483,0,7.94,4.636,10.374,13.908l0.798,3.306
		l1.368,6.954c0.379,2.508,1.215,3.573,2.508,3.192c0.986-0.303,1.784-0.665,2.394-1.083c0.607-0.417,1.899-1.386,3.876-2.907
		l1.596-1.482c2.127-2.203,3.552-3.628,4.275-4.275c0.722-0.645,1.349-0.969,1.881-0.969c0.151,0,0.759,0.153,1.824,0.456
		c0,2.28-0.627,4.275-1.881,5.985s-3.802,3.933-7.638,6.669c-3.839,2.736-6.822,4.104-8.949,4.104c-2.736,0-4.979-2.241-6.726-6.726
		l-2.395-5.472c-2.128-4.635-5.016-6.954-8.664-6.954c-2.508,0-5.016,1.14-7.523,3.42c-0.988,0.912-2.129,2.166-3.42,3.762
		c-1.673,2.129-3.459,4.713-5.357,7.752l-1.368,2.166l-2.622,4.674l-0.229,0.456c-1.367,1.899-3.306,2.736-5.813,2.508
		c-1.521,0-2.661-0.496-3.42-1.482c-0.761-0.988-1.026-2.205-0.798-3.648c0.835-3.799,1.52-6.763,2.052-8.892
		c0.228-0.759,0.759-2.469,1.596-5.13c0.151-0.379,0.36-1.215,0.627-2.508c0.266-1.292,0.551-3.153,0.855-5.586l0.456-3.306
		l0.228-2.508l0.114-1.824l0.114-1.482l-2.964,2.052c-4.332,2.813-7.639,5.244-9.918,7.296c-1.141,0.988-2.395,2.166-3.762,3.534
		c-1.368,1.368-2.206,2.205-2.509,2.508c-2.279,2.661-3.915,3.99-4.901,3.99C1717.104,609.555,1716.497,609.404,1715.434,609.099z"
		/>
	<path fill="#5A86A8" d="M1837.752,617.079c0.836-0.607,1.614-1.178,2.337-1.71c0.722-0.531,1.576-1.254,2.565-2.166
		c2.203-2.127,3.837-3.837,4.901-5.13c2.432-2.736,4.142-4.104,5.13-4.104c0.303,0,0.607,0,0.912,0
		c0.229,0.077,0.493,0.153,0.798,0.228c0,2.433-0.552,4.389-1.652,5.871c-1.103,1.482-3.973,4.124-8.607,7.923
		c-2.433,1.899-5.016,3.648-7.752,5.244l-0.342,1.71l-0.456,1.596l-1.025,3.99c-2.434,8.892-5.017,15.427-7.752,19.607
		c-2.434,3.648-5.207,5.852-8.322,6.612c-0.228,0.075-0.456,0.114-0.684,0.114c-0.305,0-0.495,0-0.57,0
		c-2.585,0-3.876-1.444-3.876-4.332c0-1.368,1.026-4.408,3.078-9.12c0.759-1.673,1.898-3.876,3.42-6.612
		c1.898-3.345,4.142-6.993,6.726-10.944l0.798-1.368l1.026-1.368l0.798-3.078l0.912-3.648l2.052-9.006l0.342-2.052l0.456-2.28
		c-2.128,2.889-4.294,5.435-6.498,7.638c-1.749,1.672-3.345,3.078-4.787,4.218c-1.445,1.14-3.155,2.356-5.13,3.648
		c-1.521,0.912-2.89,1.368-4.104,1.368c-2.735,0-4.522-2.052-5.357-6.156l-0.685-4.218l-0.342-6.498l-1.824,1.71l-0.228,0.342
		c-1.9,2.205-3.098,3.496-3.591,3.875c-0.495,0.381-1.046,0.456-1.653,0.228c-0.986-0.228-1.481-0.835-1.481-1.824
		c0-0.759,0.418-1.861,1.254-3.306c0.228-0.303,0.759-0.949,1.596-1.938c1.14-1.291,2.354-2.622,3.647-3.99
		c1.597-1.748,2.965-4.027,4.104-6.84l3.191-8.778c0-0.228,0.759-0.342,2.28-0.342c1.063,0,1.938,0,2.622,0
		c1.747,0,2.964,0.133,3.647,0.399c0.685,0.267,0.95,0.552,0.799,0.855l-2.509,6.612c-0.304,0.684-0.589,1.559-0.854,2.622
		c-0.268,1.065-0.552,2.547-0.855,4.446l-0.342,2.964c-0.153,0.989-0.228,1.844-0.228,2.565c0,0.723,0,1.236,0,1.539
		c0,0.837,0.037,1.482,0.113,1.938c0.38,2.433,1.558,3.648,3.534,3.648c0.531,0,1.026-0.114,1.482-0.342
		c0.986-0.456,1.995-1.12,3.021-1.995c1.026-0.873,2.565-2.412,4.617-4.617c1.063-1.063,2.317-2.793,3.762-5.187
		c1.443-2.394,3.039-5.49,4.788-9.291l0.798-2.394c0.456-1.671,0.949-3.381,1.482-5.13c0.303-0.759,0.721-1.14,1.254-1.14
		c0.151,0,0.93,0.077,2.337,0.228c1.405,0.153,2.26,0.305,2.564,0.456c0.607,0.305,0.912,0.989,0.912,2.052
		c0,1.217-1.824,9.12-5.472,23.712l-2.166,7.866l-0.342,1.368L1837.752,617.079z"/>
</g>
<g>
	<path fill="#5A86A8" d="M53.966,174.803c-0.076-0.456-0.114-1.14-0.114-2.052c0-1.063,0.229-2.241,0.685-3.534
		c1.596-4.635,2.735-7.257,3.42-7.866c0.684-0.607,2.964-0.912,6.84-0.912l6.726-0.456l1.026-0.114h11.627
		c8.437,0,13.566,0.304,15.391,0.912c1.823,0.609,2.735,2.243,2.735,4.902c0,2.052-0.532,3.345-1.596,3.876
		c-1.065,0.533-3.383,0.798-6.954,0.798h-6.726l-6.271,0.456l0.912,0.798l0.798,0.684l3.42,2.964l-1.596,7.638l-1.481,7.296
		l-1.141,5.814l-1.71,8.664l-0.912,4.674l-1.596,8.892c-0.609,3.345-0.988,5.586-1.14,6.726c-0.533,2.889-0.837,4.827-0.912,5.814
		c-0.532,5.548-1.065,9.063-1.596,10.544c-0.533,1.482-1.482,2.412-2.851,2.793c-0.988,0.303-1.823,0.266-2.508-0.114
		c-0.684-0.381-1.025-0.989-1.025-1.824c0.228-4.104,0.416-7.542,0.569-10.317c0.151-2.773,0.229-6.099,0.229-9.975
		c0.456-4.711,0.835-8.283,1.14-10.716c0.607-4.179,1.101-7.638,1.482-10.374l2.279-15.503l0.57-4.104l1.254-9.918l-1.71,0.342
		l-1.14,0.114l-2.395,0.456l-5.13,1.026L53.966,174.803z"/>
	<path fill="#5A86A8" d="M100.817,219.376l0.798-5.586c0.835-5.472,1.728-10.488,2.679-15.048c0.949-4.56,1.805-8.208,2.565-10.944
		c1.823-6.307,3.477-10.981,4.959-14.021c1.481-3.039,3.209-5.661,5.187-7.866c2.28-2.431,4.446-4.292,6.498-5.586
		c2.052-1.291,4.369-2.241,6.954-2.85c0.911-0.151,1.596-0.228,2.052-0.228c3.494,0,5.433,1.521,5.813,4.56
		c0.075,0.456,0.114,1.179,0.114,2.166c0,1.368-0.19,2.907-0.57,4.617c-0.381,1.71-1.083,4.275-2.108,7.695
		c-1.026,3.42-2.907,7.563-5.644,12.426c-3.04,5.397-6.574,10.716-10.602,15.959c-1.9,2.508-2.927,3.839-3.078,3.99
		c-0.609,0.76-1.521,1.787-2.735,3.078l-1.026,1.14l-1.368,1.482l-1.368,6.612l-0.228,2.166l-0.684,4.902
		c-0.456,2.889-0.724,5.073-0.799,6.555c-0.076,1.482-0.113,3.363-0.113,5.643c0.684-1.747,1.291-3.192,1.823-4.332
		c0.151-0.303,0.873-1.71,2.166-4.218c1.671-3.267,3.192-6.079,4.561-8.436c1.368-2.355,2.469-4.142,3.306-5.358
		c2.354-3.495,4.142-5.871,5.358-7.125c1.214-1.254,2.508-2.089,3.875-2.508c1.368-0.417,2.509-0.627,3.42-0.627
		c2.583,0,3.876,2.205,3.876,6.612c0,1.368,0.266,3.534,0.799,6.498l0.456,3.078l1.481,6.27c1.368,3.953,2.925,5.928,4.674,5.928
		c1.52,0,3.99-1.405,7.41-4.218l1.596-1.596c2.659-2.964,4.407-4.446,5.244-4.446c0.151,0,0.759,0.153,1.824,0.456
		c0,2.661-0.895,5.036-2.68,7.125c-1.786,2.091-5.035,4.579-9.746,7.467c-2.736,1.596-5.244,2.394-7.524,2.394
		c-2.735,0-5.169-1.274-7.296-3.819c-2.128-2.545-4.066-6.555-5.813-12.026l-1.71-5.472l-0.342-1.14
		c-2.357,2.585-4.788,5.967-7.296,10.146c-0.989,1.749-1.978,3.534-2.964,5.358c-0.685,1.368-1.255,2.547-1.71,3.534
		c-1.978,5.016-4.181,7.523-6.612,7.523c-1.14,0-2.376-0.361-3.705-1.083c-1.33-0.723-2.205-1.729-2.622-3.021
		c-0.418-1.293-0.627-3.267-0.627-5.928l0.114-5.472l0.114-1.026l0.113-3.534c-0.684,0.533-1.254,1.103-1.71,1.71l-1.823,2.052
		c-0.382,0.609-0.799,0.798-1.254,0.57c-1.597-0.379-2.204-1.443-1.824-3.192c0.379-1.063,0.873-1.938,1.481-2.622l1.482-1.482
		l2.622-2.508l0.456-0.57L100.817,219.376z M127.379,185.291l4.56-10.032c1.596-3.495,2.394-6.08,2.394-7.752
		c0-0.912-0.247-1.671-0.74-2.28c-0.495-0.607-1.083-0.912-1.768-0.912c-0.608,0-1.14,0.228-1.596,0.684
		c-1.596,1.596-2.964,3.42-4.104,5.472c-3.573,6.765-5.7,10.869-6.384,12.312c-0.685,1.444-2.015,4.979-3.99,10.602
		c-2.205,6.232-3.306,10.641-3.306,13.224c2.887-2.736,5.509-5.718,7.865-8.949c2.354-3.229,4.483-6.857,6.384-10.887
		L127.379,185.291z"/>
	<path fill="#5A86A8" d="M173.09,226.444c-0.153,0.912-0.19,1.635-0.113,2.166c0,2.508,0.872,4.56,2.622,6.156
		c1.747,1.596,3.989,2.394,6.726,2.394c1.976,0,3.799-0.417,5.472-1.254c2.736-1.292,4.902-2.85,6.498-4.674
		c1.14-1.14,2.337-2.317,3.591-3.534c1.254-1.215,2.223-1.824,2.907-1.824c0.456,0,1.101,0.153,1.938,0.456
		c-0.381,2.661-1.388,4.959-3.021,6.897c-1.636,1.938-4.885,4.503-9.747,7.695c-2.052,1.292-4.144,2.204-6.27,2.736
		c-2.129,0.531-4.144,0.798-6.042,0.798c-3.953,0-7.222-1.026-9.804-3.078c-2.585-2.052-4.181-4.788-4.788-8.208
		c-0.153-1.063-0.229-1.861-0.229-2.394c0-1.063,0.058-1.899,0.171-2.508c0.114-0.607,0.437-1.557,0.97-2.85l-2.28,2.394
		l-3.078,3.306c-1.14,0.381-1.977,0.039-2.508-1.026c-0.228-0.456-0.342-0.912-0.342-1.368c0-0.684,0.493-1.633,1.481-2.85
		c0.987-1.214,2.66-2.924,5.017-5.13l5.586-5.358l1.367-1.14c2.355-2.127,4.483-3.914,6.385-5.358
		c1.291-0.987,2.887-2.166,4.787-3.534c3.495-2.28,6.459-3.856,8.893-4.731c2.431-0.873,4.445-1.311,6.041-1.311
		c1.748,0.153,3.078,0.723,3.99,1.71c0.912,0.989,1.368,2.206,1.368,3.648c0,0.533-0.076,1.103-0.228,1.71
		c-0.153,0.609-0.438,1.388-0.855,2.337c-0.419,0.951-1.046,2.109-1.881,3.477c-1.673,2.736-4.371,5.283-8.094,7.638
		c-3.725,2.356-8.322,4.294-13.794,5.813l-2.28,0.684L173.09,226.444z M193.952,207.749c-1.065-0.607-2.053-0.912-2.964-0.912
		c-1.065,0-2.148,0.342-3.249,1.026c-1.103,0.684-2.68,1.977-4.731,3.875l-4.901,4.332c-1.294,1.521-2.471,3.345-3.534,5.472
		c3.42-0.759,6.572-1.938,9.462-3.534c2.887-1.596,5.072-3.172,6.555-4.731C192.071,211.721,193.191,209.877,193.952,207.749z"/>
</g>
</svg>
