<?xml version="1.0" encoding="utf-8"?>
<!-- Generator: Adobe Illustrator 16.0.0, SVG Export Plug-In . SVG Version: 6.00 Build 0)  -->
<!DOCTYPE svg PUBLIC "-//W3C//DTD SVG 1.1//EN" "http://www.w3.org/Graphics/SVG/1.1/DTD/svg11.dtd">
<svg version="1.1" id="Layer_1" xmlns="http://www.w3.org/2000/svg" xmlns:xlink="http://www.w3.org/1999/xlink" x="0px" y="0px"
	 width="2242.388px" height="686.093px" viewBox="0 0 2242.388 686.093" enable-background="new 0 0 2242.388 686.093"
	 xml:space="preserve">
<g>
	<path fill="#5A86A8" d="M239.294,343.511l3.595-33.951l2.796-27.16l0.399-3.196l1.198-9.187
		c2.396-16.507,4.525-27.691,6.391-33.551c1.86-5.854,4.924-12.245,9.187-19.172l-6.791-4.394l-1.598-0.799l-13.181-7.189
		c-1.335-0.799-1.997-2.396-1.997-4.793c0-2.128,0.53-4.456,1.598-6.99c1.061-2.527,2.996-4.793,5.792-6.79
		s6.391-3.726,10.785-5.192c4.394-1.46,9.118-2.197,14.179-2.197c7.452,0,16.308,1.535,26.562,4.593
		c10.248,3.064,22.698,8.057,37.346,14.979c9.586,4.531,18.636,10.653,27.161,18.373c22.63,20.77,33.951,39.281,33.951,55.52
		c0,20.77-18.642,40.741-55.919,59.913c-6.128,2.934-12.451,5.792-18.972,8.588c-6.528,2.796-12.85,5.392-18.973,7.789
		l-10.385,3.994c9.049,18.374,18.904,35.149,29.557,50.327c10.647,15.178,23.697,31.292,39.143,48.33
		c7.452,7.989,12.913,13.718,16.376,17.175c5.592,5.592,10.116,9.985,13.58,13.181l6.391,5.592l15.178,13.181
		c6.123,5.324,9.187,10.248,9.187,14.779c0,3.195-1.466,6.521-4.394,9.985c-3.195-1.335-7.059-3.064-11.583-5.192
		c-1.598-0.799-5.461-2.796-11.583-5.991c-25.831-13.581-47.469-29.158-64.906-46.732c-17.443-17.575-34.419-41.271-50.926-71.097
		l-7.189-13.979l-0.399,4.394l-0.799,12.782c0,3.463,0,5.991,0,7.589c0,2.665,0,4.662,0,5.991c0,4.793-0.069,9.056-0.2,12.781
		c-0.137,3.732-0.2,6.928-0.2,9.586c0.53,6.128,1.061,11.452,1.598,15.977c0.53,4.531,0.799,7.727,0.799,9.586
		c0,5.33-1.866,8.787-5.592,10.385c-1.335,0.53-4.662,1.46-9.986,2.796c-5.33,1.33-9.723,1.997-13.181,1.997
		c-4.793,0-7.988-1.598-9.586-4.793s-2.396-8.787-2.396-16.776v-20.77l2.396-24.365l1.598-14.379l0.799-7.988
		c0.53-2.659,0.93-5.055,1.198-7.189c0.262-2.128,0.399-6.391,0.399-12.782l-0.799-0.799l-4.394-3.994l-4.394-6.391
		c-1.336-2.396-1.267-4.793,0.2-7.189c1.46-2.396,3.925-4.125,7.389-5.192H239.294z M290.42,235.268
		c-0.799,2.933-1.536,5.929-2.197,8.987c-0.668,3.064-1.267,6.191-1.797,9.386l-1.998,9.187l-2.796,16.775
		c-2.134,11.983-4.131,23.965-5.991,35.948c-0.799,6.391-1.198,13.449-1.198,21.169c0.799,0.537,1.46,0.799,1.997,0.799l8.388-2.396
		l15.578-5.192l7.189-2.796l13.98-5.592c9.049-3.726,16.239-7.252,21.569-10.584c5.323-3.327,10.516-7.121,15.577-11.384
		c3.458-3.195,5.923-6.123,7.389-8.787c1.46-2.659,2.197-5.854,2.197-9.586c0-6.122-2.534-12.182-7.589-18.173
		c-5.062-5.991-12.781-11.783-23.167-17.375c-10.385-5.592-21.837-10.248-34.35-13.979l-11.184-3.195l-0.799,3.595L290.42,235.268z"
		/>
	<path fill="#5A86A8" d="M514.09,312.356l19.971-3.995c2.128-0.53,4.194-0.799,6.191-0.799s3.526,0,4.593,0
		c27.959,0,41.939,16.114,41.939,48.33c0,8.257-0.936,16.913-2.796,25.962c-3.195,15.178-7.926,28.097-14.18,38.744
		c-6.26,10.653-14.847,20.508-25.763,29.557c-20.239,16.514-41.009,24.764-62.31,24.764c-4.263,0-8.656-0.399-13.181-1.198
		c-17.843-2.933-30.556-7.988-38.145-15.178c-7.589-7.19-11.383-17.706-11.383-31.554c0-3.196,0.131-5.723,0.399-7.589l1.198-6.391
		l-5.991,5.991l-0.799,0.799c-5.86,6.928-9.854,11.184-11.983,12.782c-2.134,1.598-4.262,2.134-6.391,1.598
		c-3.458-0.799-5.192-3.058-5.192-6.79c0-2.927,1.335-6.653,3.994-11.184c0.53-1.061,1.997-2.796,4.394-5.192
		c7.189-7.189,15.041-14.91,23.566-23.167c0.53-0.53,1.46-1.46,2.796-2.796c1.33-1.329,3.258-3.794,5.792-7.389
		c2.528-3.595,4.593-7.189,6.191-10.785c1.598-3.595,4.125-10.447,7.589-20.57l3.595-7.989c2.927-6.391,6.253-11.583,9.985-15.577
		c10.385-11.184,18.835-18.973,25.363-23.366c6.522-4.394,12.582-6.59,18.174-6.59c3.726,0,7.052,1.198,9.985,3.595
		c2.927,2.396,4.394,5.461,4.394,9.187C516.087,307.962,515.42,310.228,514.09,312.356z M559.625,397.033
		c1.061-5.323,1.598-10.784,1.598-16.376c0-11.714-2.465-21.101-7.389-28.159c-4.931-7.052-10.385-11.184-16.376-12.382
		c-5.991-1.198-10.454-1.797-13.38-1.797c-4.263,0-7.989,0.668-11.184,1.998c-3.195,1.335-5.86,3.195-7.988,5.592
		c-4.531,5.592-7.727,9.324-9.586,11.184c-1.866,1.866-3.333,3.064-4.394,3.595c-6.391,3.994-10.454,7.127-12.182,9.387
		c-1.735,2.265-3.994,8.057-6.79,17.375c-2.796,9.324-4.194,17.974-4.194,25.962c0,5.062,0.53,9.187,1.598,12.382
		c4.793,17.575,13.443,26.362,25.962,26.362c8.25,0,18.772-3.595,31.554-10.784C545.245,431.252,556.161,416.474,559.625,397.033z"
		/>
	<path fill="#5A86A8" d="M721.39,460.94c2.927-2.128,5.654-4.125,8.188-5.992c2.528-1.859,5.523-4.394,8.987-7.589
		c7.72-7.452,13.443-13.443,17.175-17.974c8.519-9.586,14.51-14.379,17.974-14.379c1.061,0,2.128,0,3.195,0
		c0.799,0.269,1.729,0.537,2.796,0.799c0,8.525-1.935,15.378-5.792,20.57c-3.863,5.192-13.917,14.448-30.156,27.76
		c-8.525,6.653-17.575,12.781-27.161,18.373l-1.198,5.992l-1.598,5.592l-3.595,13.979c-8.525,31.155-17.574,54.053-27.16,68.701
		c-8.525,12.781-18.243,20.501-29.158,23.167c-0.799,0.262-1.598,0.399-2.396,0.399c-1.067,0-1.735,0-1.997,0
		c-9.056,0-13.58-5.062-13.58-15.178c0-4.793,3.595-15.446,10.784-31.954c2.659-5.86,6.653-13.581,11.983-23.167
		c6.653-11.721,14.51-24.502,23.565-38.344l2.796-4.793l3.595-4.793l2.796-10.784l3.195-12.781l7.189-31.554l1.198-7.19l1.598-7.988
		c-7.458,10.123-15.047,19.041-22.767,26.761c-6.128,5.86-11.72,10.784-16.775,14.778c-5.062,3.995-11.053,8.257-17.974,12.782
		c-5.33,3.195-10.123,4.793-14.379,4.793c-9.586,0-15.846-7.189-18.773-21.569l-2.396-14.778l-1.198-22.767l-6.391,5.991
		l-0.799,1.198c-6.659,7.727-10.853,12.251-12.582,13.581c-1.735,1.335-3.663,1.598-5.792,0.799
		c-3.458-0.799-5.192-2.927-5.192-6.391c0-2.659,1.467-6.522,4.394-11.583c0.799-1.061,2.659-3.326,5.592-6.79
		c3.994-4.525,8.25-9.187,12.782-13.98c5.592-6.122,10.385-14.111,14.379-23.965l11.184-30.755c0-0.799,2.658-1.199,7.988-1.199
		c3.726,0,6.79,0,9.187,0c6.123,0,10.385,0.468,12.782,1.398c2.396,0.937,3.326,1.935,2.796,2.996l-8.788,23.166
		c-1.067,2.396-2.065,5.461-2.996,9.187c-0.936,3.732-1.935,8.924-2.996,15.577l-1.198,10.385c-0.537,3.463-0.799,6.459-0.799,8.987
		c0,2.534,0,4.331,0,5.392c0,2.933,0.131,5.192,0.399,6.79c1.33,8.525,5.455,12.782,12.382,12.782c1.859,0,3.595-0.399,5.192-1.198
		c3.458-1.598,6.99-3.926,10.584-6.99c3.595-3.058,8.987-8.451,16.177-16.177c3.726-3.726,8.119-9.786,13.181-18.174
		c5.055-8.388,10.647-19.234,16.776-32.553l2.796-8.388c1.598-5.854,3.326-11.845,5.192-17.974c1.061-2.659,2.528-3.994,4.394-3.994
		c0.531,0,3.258,0.269,8.188,0.799c4.924,0.537,7.92,1.067,8.987,1.598c2.128,1.067,3.195,3.464,3.195,7.189
		c0,4.263-6.391,31.954-19.172,83.08l-7.589,27.56l-1.198,4.793L721.39,460.94z"/>
	<path fill="#5A86A8" d="M1053.301,431.383c1.329,2.665,1.997,4.793,1.997,6.391c0,2.396-1.398,4.462-4.194,6.191
		c-2.796,1.735-7.658,3.932-14.579,6.59l-23.167,9.187l-13.979,4.394c-15.446,4.263-28.359,6.391-38.744,6.391
		c-6.659,0-12.782-0.537-18.374-1.598c0-3.458,0.999-6.054,2.996-7.789c1.997-1.729,6.054-3.395,12.183-4.993
		c29.819-7.452,57.248-21.432,82.28-41.939c12.245-9.848,21.631-21.7,28.159-35.548c6.522-13.842,9.786-28.222,9.786-43.138
		c0-19.703-5.193-38.207-15.578-55.52c-10.385-17.306-25.563-31.417-45.534-42.338c-8.257-4.793-17.175-8.388-26.761-10.784
		l-1.598,7.988l-1.198,6.391l-5.992,37.146l-2.396,12.782l-6.79,37.945l-4.793,25.962l-5.592,28.758
		c-3.464,19.44-6.06,32.69-7.789,39.742c-1.735,7.059-3.264,11.384-4.593,12.981c-2.665,3.195-5.192,5.192-7.589,5.991
		c-1.866,0.537-3.532,0.137-4.993-1.198c-1.467-1.329-2.197-3.195-2.197-5.592c0-11.983,1.329-25.026,3.994-39.144l2.396-47.131
		l3.595-45.534c3.458-35.679,5.455-56.718,5.991-63.108c0.531-6.391,1.198-9.848,1.997-10.385l10.785-6.391l1.198-0.799l3.994-2.796
		l-15.977-7.189c-13.849-6.391-20.77-11.046-20.77-13.979c0-1.86,1.329-5.193,3.994-9.986c1.598-2.927,5.192-4.394,10.784-4.394
		c4.793,0,10.185,0.668,16.177,1.997c5.991,1.335,14.978,3.994,26.961,7.988l53.123,17.175c2.397,1.335,4.394,2.396,5.992,3.195
		c0.799,0.537,4.125,2.796,9.985,6.79c38.875,29.295,58.315,63.109,58.315,101.453c0,18.111-4.73,35.885-14.179,53.323
		c-9.455,17.443-23.766,33.888-42.938,49.328L1053.301,431.383z"/>
	<path fill="#5A86A8" d="M1165.536,387.447l-7.988,7.189l-18.374,17.175c-4.263,4.793-8.325,9.255-12.182,13.38
		c-3.863,4.132-6.659,6.591-8.388,7.39c-1.735,0.799-2.996,1.198-3.794,1.198c-2.665,0-4.662-0.861-5.991-2.596
		c-1.329-1.729-1.997-3.657-1.997-5.792c0-3.195,1.467-6.253,4.394-9.187l12.382-11.982l2.796-2.796l12.781-12.782l25.563-26.362
		l5.592-5.991c9.05-9.318,15.977-13.979,20.77-13.979c2.396,0,6.922,1.136,13.581,3.395c6.652,2.265,10.716,4.793,12.182,7.589
		c1.461,2.796,2.197,11.652,2.197,26.562c0.53,5.33,1.061,9.586,1.598,12.781c0.53,3.195,1.46,7.589,2.796,13.181l3.195,10.784
		c6.921,22.368,16.639,33.551,29.158,33.551c5.854,0,12.113-2.527,18.772-7.589c5.055-3.994,8.787-7.052,11.184-9.187
		c2.396-2.128,4.656-4.256,6.79-6.391c4.793-5.592,8.251-9.187,10.385-10.785c2.129-1.598,4.257-2.128,6.391-1.598
		c4.794,1.067,6.653,3.994,5.593,8.787c-0.537,2.665-1.798,5.33-3.795,7.989c-1.997,2.665-6.06,7.327-12.183,13.979l-13.979,11.983
		c-11.184,9.324-21.837,15.977-31.954,19.971c-14.116,5.854-25.032,8.788-32.752,8.788c-9.056,0-16.713-4.063-22.967-12.183
		c-6.26-8.12-12.981-22.43-20.171-42.938c-2.665-7.19-4.861-13.98-6.59-20.371C1168.794,404.223,1167.134,396.502,1165.536,387.447z
		 M1183.909,250.845c-0.536-3.458-0.068-7.252,1.398-11.383c1.46-4.125,4.524-9.249,9.187-15.378
		c4.655-6.122,9.917-10.915,15.777-14.379c2.927-1.86,6.253-2.796,9.985-2.796c8.787,0,14.909,4.793,18.373,14.379
		c1.598,3.995,2.396,8.388,2.396,13.181c0,6.659-1.734,12.918-5.192,18.772c-4.793,7.727-11.583,13.05-20.37,15.977
		c-2.934,0.799-5.729,1.198-8.388,1.198C1193.758,270.417,1186.038,263.895,1183.909,250.845z"/>
	<path fill="#5A86A8" d="M1376.028,319.545h5.592c11.715,0,19.235,3.463,22.567,10.385c3.327,6.928,4.993,22.368,4.993,46.333
		c0,13.58-4.132,32.222-12.382,55.919l-1.997,5.592l-0.799,1.997c6.391-4.793,10.385-8.25,11.982-10.385l14.379-14.379
		c2.927-1.061,6.653-0.662,11.184,1.198c0,6.659-1.866,12.251-5.592,16.776c-2.135,2.665-5.991,6.528-11.583,11.583l-14.778,13.98
		c-0.799,0.537-3.595,2.396-8.388,5.592c-2.665,1.598-4.132,2.534-4.395,2.796c-0.268,0.537-0.536,1.067-0.799,1.598
		c-1.865,3.195-3.332,5.854-4.394,7.988c-2.664,5.324-7.857,7.989-15.577,7.989c-3.195,0-6.391-0.799-9.586-2.397
		c-6.659-3.463-11.253-8.924-13.78-16.376c-2.533-7.452-3.794-12.644-3.794-15.578c0-2.927,1.129-4.793,3.395-5.592
		c2.26-0.799,6.191-1.198,11.783-1.198c2.396,0,6.391-1.46,11.982-4.394l1.997-7.988c3.994-15.708,5.991-28.222,5.991-37.546
		c0-6.122-0.799-11.982-2.396-17.574l-10.385,7.988c-8.525,6.927-16.114,13.581-22.767,19.971
		c-5.33,5.061-9.056,9.056-11.185,11.982c-3.994,5.592-8.524,10.922-13.58,15.977c-2.665,3.195-5.729,2.134-9.187-3.195
		c-1.598-3.196-2.396-5.324-2.396-6.391c0-2.396,1.261-5.124,3.795-8.188c2.527-3.058,7.52-8.188,14.978-15.377
		c2.396-2.397,4.725-4.855,6.99-7.39c2.259-2.527,5.923-6.99,10.984-13.38l7.988-9.986l9.187-11.583
		c5.592-7.452,9.786-13.78,12.582-18.973C1371.436,332.127,1373.895,326.205,1376.028,319.545z"/>
	<path fill="#5A86A8" d="M1417.961,432.981c0-7.989,2.128-14.379,6.391-19.172c1.062-1.061,6.79-6.653,17.175-16.776l2.796-2.796
		l22.368-22.767l27.16-26.362l26.362-23.167c7.988-7.189,15.309-12.245,21.968-15.178c2.128-1.061,4.394-1.598,6.79-1.598
		c6.653,0,10.186,1.797,10.585,5.392c0.399,3.595,0.599,6.859,0.599,9.786c0,3.732-0.268,7.327-0.799,10.784
		c-1.598,8.525-2.933,15.715-3.994,21.569c-1.066,5.86-2.396,11.852-3.994,17.974c-0.269,0.537-2.266,7.189-5.991,19.971
		l-3.994,12.382l-3.595,10.784l4.394-5.192l10.784-12.782l0.799-1.198l7.189-7.589c2.928-2.927,5.992-5.792,9.188-8.587
		s6.122-5.124,8.787-6.99c13.58-10.385,25.026-15.578,34.35-15.578c15.709,0,27.822,16.245,36.348,48.729l2.796,11.583l4.793,24.365
		c1.329,8.787,4.257,12.52,8.787,11.184c3.458-1.061,6.254-2.328,8.388-3.794c2.129-1.46,6.653-4.855,13.581-10.185l5.592-5.192
		c7.451-7.72,12.444-12.713,14.978-14.979c2.528-2.259,4.725-3.395,6.591-3.395c0.53,0,2.659,0.537,6.391,1.598
		c0,7.988-2.196,14.979-6.59,20.97s-13.318,13.78-26.762,23.366c-13.449,9.586-23.902,14.379-31.354,14.379
		c-9.586,0-17.443-7.851-23.565-23.566l-8.388-19.172c-7.458-16.239-17.575-24.365-30.356-24.365
		c-8.787,0-17.574,3.994-26.361,11.982c-3.464,3.195-7.458,7.589-11.983,13.181c-5.86,7.458-12.119,16.513-18.772,27.161
		l-4.793,7.589l-9.187,16.376l-0.799,1.598c-4.793,6.653-11.583,9.586-20.371,8.787c-5.329,0-9.323-1.735-11.982-5.192
		c-2.665-3.464-3.595-7.727-2.796-12.782c2.927-13.312,5.323-23.697,7.189-31.155c0.799-2.659,2.659-8.65,5.592-17.974
		c0.531-1.33,1.261-4.256,2.197-8.788c0.93-4.524,1.929-11.046,2.995-19.571l1.599-11.583l0.799-8.787l0.399-6.391l0.399-5.193
		l-10.386,7.19c-15.178,9.854-26.761,18.373-34.749,25.563c-3.994,3.463-8.388,7.589-13.181,12.382
		c-4.794,4.793-7.727,7.726-8.788,8.787c-7.988,9.324-13.717,13.98-17.175,13.98
		C1423.814,434.579,1421.687,434.048,1417.961,432.981z"/>
	<path fill="#5A86A8" d="M1766.65,416.604c-0.537,3.195-0.668,5.729-0.399,7.589c0,8.788,3.058,15.977,9.187,21.569
		c6.122,5.592,13.979,8.388,23.566,8.388c6.921,0,13.312-1.46,19.172-4.394c9.586-4.524,17.175-9.985,22.767-16.376
		c3.994-3.994,8.188-8.12,12.582-12.382c4.394-4.256,7.789-6.391,10.186-6.391c1.598,0,3.856,0.537,6.79,1.598
		c-1.336,9.324-4.862,17.375-10.585,24.165c-5.729,6.79-17.112,15.777-34.15,26.961c-7.189,4.524-14.517,7.72-21.968,9.586
		c-7.458,1.86-14.517,2.796-21.17,2.796c-13.849,0-25.301-3.595-34.35-10.784c-9.056-7.189-14.647-16.776-16.776-28.758
		c-0.536-3.726-0.799-6.522-0.799-8.388c0-3.726,0.2-6.653,0.6-8.788c0.399-2.128,1.529-5.455,3.395-9.985l-7.988,8.388
		l-10.784,11.583c-3.994,1.335-6.928,0.137-8.787-3.595c-0.799-1.598-1.198-3.196-1.198-4.793c0-2.396,1.729-5.723,5.192-9.985
		c3.458-4.256,9.317-10.248,17.574-17.974l19.572-18.772l4.793-3.994c8.25-7.452,15.708-13.711,22.367-18.773
		c4.524-3.458,10.117-7.589,16.775-12.382c12.245-7.989,22.63-13.512,31.155-16.576c8.519-3.058,15.577-4.593,21.169-4.593
		c6.123,0.537,10.785,2.534,13.98,5.991c3.195,3.464,4.793,7.727,4.793,12.782c0,1.866-0.269,3.863-0.799,5.991
		c-0.537,2.134-1.535,4.861-2.996,8.188c-1.467,3.333-3.663,7.389-6.59,12.182c-5.86,9.586-15.315,18.511-28.359,26.761
		c-13.05,8.257-29.157,15.047-48.33,20.371l-7.988,2.396L1766.65,416.604z M1839.744,351.1c-3.731-2.128-7.189-3.195-10.385-3.195
		c-3.732,0-7.526,1.198-11.384,3.595c-3.862,2.396-9.386,6.927-16.575,13.58l-17.176,15.178c-4.53,5.33-8.656,11.72-12.382,19.172
		c11.982-2.659,23.029-6.791,33.152-12.382c10.116-5.592,17.774-11.115,22.967-16.576
		C1833.154,365.017,1837.079,358.558,1839.744,351.1z"/>
	<path fill="#5A86A8" d="M1998.31,460.94c2.928-2.128,5.654-4.125,8.188-5.992c2.527-1.859,5.523-4.394,8.987-7.589
		c7.72-7.452,13.442-13.443,17.175-17.974c8.519-9.586,14.51-14.379,17.974-14.379c1.062,0,2.129,0,3.195,0
		c0.799,0.269,1.729,0.537,2.796,0.799c0,8.525-1.935,15.378-5.791,20.57c-3.863,5.192-13.918,14.448-30.156,27.76
		c-8.525,6.653-17.574,12.781-27.161,18.373l-1.198,5.992l-1.598,5.592l-3.595,13.979c-8.525,31.155-17.574,54.053-27.16,68.701
		c-8.525,12.781-18.242,20.501-29.158,23.167c-0.799,0.262-1.598,0.399-2.396,0.399c-1.067,0-1.734,0-1.997,0
		c-9.056,0-13.58-5.062-13.58-15.178c0-4.793,3.595-15.446,10.784-31.954c2.659-5.86,6.653-13.581,11.982-23.167
		c6.653-11.721,14.511-24.502,23.566-38.344l2.796-4.793l3.595-4.793l2.796-10.784l3.195-12.781l7.189-31.554l1.198-7.19
		l1.598-7.988c-7.458,10.123-15.047,19.041-22.767,26.761c-6.129,5.86-11.721,10.784-16.776,14.778
		c-5.061,3.995-11.053,8.257-17.974,12.782c-5.33,3.195-10.123,4.793-14.379,4.793c-9.586,0-15.846-7.189-18.772-21.569
		l-2.396-14.778l-1.199-22.767l-6.391,5.991l-0.799,1.198c-6.659,7.727-10.853,12.251-12.581,13.581
		c-1.735,1.335-3.664,1.598-5.792,0.799c-3.457-0.799-5.192-2.927-5.192-6.391c0-2.659,1.467-6.522,4.394-11.583
		c0.799-1.061,2.658-3.326,5.592-6.79c3.994-4.525,8.251-9.187,12.781-13.98c5.592-6.122,10.386-14.111,14.38-23.965l11.184-30.755
		c0-0.799,2.658-1.199,7.988-1.199c3.726,0,6.79,0,9.187,0c6.122,0,10.385,0.468,12.781,1.398c2.396,0.937,3.327,1.935,2.796,2.996
		l-8.787,23.166c-1.067,2.396-2.065,5.461-2.995,9.187c-0.937,3.732-1.935,8.924-2.996,15.577l-1.198,10.385
		c-0.537,3.463-0.799,6.459-0.799,8.987c0,2.534,0,4.331,0,5.392c0,2.933,0.131,5.192,0.399,6.79
		c1.329,8.525,5.455,12.782,12.382,12.782c1.86,0,3.595-0.399,5.192-1.198c3.458-1.598,6.99-3.926,10.585-6.99
		c3.595-3.058,8.987-8.451,16.177-16.177c3.726-3.726,8.119-9.786,13.181-18.174c5.056-8.388,10.647-19.234,16.775-32.553
		l2.796-8.388c1.598-5.854,3.327-11.845,5.192-17.974c1.062-2.659,2.528-3.994,4.395-3.994c0.53,0,3.258,0.269,8.188,0.799
		c4.925,0.537,7.92,1.067,8.987,1.598c2.128,1.067,3.195,3.464,3.195,7.189c0,4.263-6.391,31.954-19.172,83.08l-7.59,27.56
		l-1.198,4.793L1998.31,460.94z"/>
</g>
</svg>
